<svg width="22" height="21" viewBox="0 0 22 21" fill="none" xmlns="http://www.w3.org/2000/svg">
<path d="M17.3443 6.15002C17.5677 6.15002 17.7489 5.96887 17.7489 5.74541V1.34529C17.7489 0.675991 17.2044 0.13147 16.5351 0.13147H1.80733C1.13803 0.13147 0.593506 0.675991 0.593506 1.34529V19.6336C0.593506 20.3029 1.13803 20.8474 1.80733 20.8474H16.5351C17.2044 20.8474 17.7489 20.3029 17.7489 19.6336V16.6528C17.7489 16.4293 17.5677 16.2481 17.3443 16.2481C17.1209 16.2481 16.9397 16.4293 16.9397 16.6528V19.6336C16.9397 19.8567 16.7582 20.0382 16.5351 20.0382H1.80733C1.58423 20.0382 1.40272 19.8567 1.40272 19.6336V1.34529C1.40272 1.12219 1.58423 0.940686 1.80733 0.940686H16.5351C16.7582 0.940686 16.9397 1.12219 16.9397 1.34529V5.74541C16.9397 5.96887 17.1209 6.15002 17.3443 6.15002Z" fill="#00160A" fill-opacity="0.5"/>
<path d="M9.17112 2.31628C7.11859 2.31628 5.44873 3.98614 5.44873 6.03868C5.44873 7.10349 5.89825 8.06516 6.61732 8.74425C6.63079 8.75866 6.64512 8.77229 6.66077 8.78471C7.32316 9.39078 8.20468 9.76103 9.17108 9.76103C10.1375 9.76103 11.019 9.39074 11.6814 8.78471C11.6971 8.77229 11.7114 8.75862 11.7248 8.74425C12.444 8.06516 12.8935 7.10349 12.8935 6.03868C12.8935 3.98614 11.2237 2.31628 9.17112 2.31628ZM9.17112 8.95186C8.51044 8.95186 7.9007 8.73046 7.41144 8.35838C7.76705 7.7278 8.43065 7.33343 9.17112 7.33343C9.9116 7.33343 10.5752 7.7278 10.9308 8.35838C10.4415 8.73046 9.83181 8.95186 9.17112 8.95186ZM8.52375 5.87684V5.61384C8.52375 5.2569 8.81418 4.96647 9.17112 4.96647C9.52807 4.96647 9.8185 5.2569 9.8185 5.61384V5.87684C9.8185 6.23378 9.52807 6.52421 9.17112 6.52421C8.81418 6.52421 8.52375 6.23378 8.52375 5.87684ZM11.5154 7.76567C11.217 7.32311 10.8035 6.97891 10.3233 6.76641C10.5139 6.52012 10.6277 6.21161 10.6277 5.87684V5.61384C10.6277 4.81065 9.97431 4.15725 9.17112 4.15725C8.36794 4.15725 7.71454 4.81065 7.71454 5.61384V5.87684C7.71454 6.21161 7.82835 6.52012 8.01892 6.76641C7.53877 6.97891 7.12522 7.32311 6.82683 7.76567C6.4696 7.28204 6.25795 6.68472 6.25795 6.03868C6.25795 4.43234 7.56479 3.1255 9.17112 3.1255C10.7775 3.1255 12.0843 4.43234 12.0843 6.03868C12.0843 6.68472 11.8727 7.28204 11.5154 7.76567Z" fill="#00160A" fill-opacity="0.5"/>
<path d="M11.3561 17.8533H9.17121C8.94779 17.8533 8.7666 18.0344 8.7666 18.2579C8.7666 18.4813 8.94779 18.6625 9.17121 18.6625H11.3561C11.5795 18.6625 11.7607 18.4813 11.7607 18.2579C11.7607 18.0344 11.5795 17.8533 11.3561 17.8533Z" fill="#00160A" fill-opacity="0.5"/>
<path d="M11.3561 15.5875H5.61066C5.38724 15.5875 5.20605 15.7687 5.20605 15.9921C5.20605 16.2156 5.38724 16.3967 5.61066 16.3967H11.3561C11.5795 16.3967 11.7607 16.2156 11.7607 15.9921C11.7607 15.7687 11.5795 15.5875 11.3561 15.5875Z" fill="#00160A" fill-opacity="0.5"/>
<path d="M11.3561 13.3217H5.61066C5.38724 13.3217 5.20605 13.5028 5.20605 13.7263C5.20605 13.9497 5.38724 14.1309 5.61066 14.1309H11.3561C11.5795 14.1309 11.7607 13.9497 11.7607 13.7263C11.7607 13.5028 11.5795 13.3217 11.3561 13.3217Z" fill="#00160A" fill-opacity="0.5"/>
<path d="M4.16857 11.1745C4.09335 11.0992 3.98896 11.0559 3.88215 11.0559C3.77569 11.0559 3.67131 11.0992 3.59609 11.1745C3.52083 11.2497 3.47754 11.3541 3.47754 11.4605C3.47754 11.5669 3.52079 11.6713 3.59609 11.7466C3.67175 11.8218 3.77569 11.8651 3.88215 11.8651C3.98896 11.8651 4.09295 11.8218 4.16857 11.7466C4.24383 11.6713 4.28716 11.5669 4.28716 11.4605C4.28716 11.3541 4.24387 11.2497 4.16857 11.1745Z" fill="#00160A" fill-opacity="0.5"/>
<path d="M4.16857 13.4402C4.09295 13.3649 3.98896 13.3217 3.88215 13.3217C3.77569 13.3217 3.67175 13.3649 3.59609 13.4402C3.52083 13.5155 3.47754 13.6199 3.47754 13.7263C3.47754 13.8327 3.52079 13.9371 3.59609 14.0123C3.67175 14.0876 3.77569 14.1309 3.88215 14.1309C3.98896 14.1309 4.09295 14.0876 4.16857 14.0123C4.24383 13.9371 4.28716 13.8327 4.28716 13.7263C4.28716 13.6199 4.24387 13.5155 4.16857 13.4402Z" fill="#00160A" fill-opacity="0.5"/>
<path d="M4.16857 15.7061C4.09295 15.6308 3.98896 15.5875 3.88215 15.5875C3.77569 15.5875 3.67175 15.6308 3.59609 15.7061C3.52083 15.7813 3.47754 15.8857 3.47754 15.9921C3.47754 16.0985 3.52079 16.2029 3.59609 16.2782C3.67131 16.3534 3.77569 16.3967 3.88215 16.3967C3.98896 16.3967 4.09335 16.3534 4.16857 16.2782C4.24383 16.2029 4.28716 16.0985 4.28716 15.9921C4.28716 15.8857 4.24387 15.7813 4.16857 15.7061Z" fill="#00160A" fill-opacity="0.5"/>
<path d="M11.3561 11.0559H5.61066C5.38724 11.0559 5.20605 11.2371 5.20605 11.4605C5.20605 11.684 5.38724 11.8651 5.61066 11.8651H11.3561C11.5795 11.8651 11.7607 11.684 11.7607 11.4605C11.7607 11.2371 11.5795 11.0559 11.3561 11.0559Z" fill="#00160A" fill-opacity="0.5"/>
<path d="M20.4597 5.4043C20.0666 5.17735 19.6087 5.11707 19.1701 5.23452C18.7317 5.35202 18.3652 5.63322 18.1383 6.0263L13.0466 14.8453C13.0188 14.8936 13.0011 14.9472 12.9949 15.0027L12.6365 18.213C12.6187 18.3728 12.6971 18.5279 12.8363 18.6083C12.8992 18.6446 12.969 18.6625 13.0386 18.6625C13.1232 18.6625 13.2076 18.636 13.2786 18.5837L15.8795 16.6681C15.9245 16.635 15.9621 16.593 15.99 16.5447L21.0816 7.7257C21.5502 6.91421 21.2712 5.87283 20.4597 5.4043ZM13.5433 17.3837L13.7305 15.7073L14.9015 16.3834L13.5433 17.3837ZM15.4915 15.7896L13.9498 14.8995L18.0357 7.82248L19.5775 8.71262L15.4915 15.7896ZM20.3809 7.32105L19.982 8.01183L18.4403 7.1217L18.8391 6.43091C18.958 6.225 19.1499 6.07773 19.3796 6.01619C19.6093 5.9546 19.8492 5.98625 20.055 6.10512C20.2609 6.22399 20.4082 6.41594 20.4697 6.64559C20.5313 6.87525 20.4997 7.11514 20.3809 7.32105Z" fill="#00160A" fill-opacity="0.5"/>
</svg>
