<svg width="218" height="212" viewBox="0 0 218 212" fill="none" xmlns="http://www.w3.org/2000/svg">
<g filter="url(#filter0_d_1_392)">
<path d="M35.4614 184.687C76.0756 208.655 141.925 208.656 182.539 184.687C223.154 160.718 223.154 121.858 182.539 97.8897C141.924 73.9209 76.0751 73.921 35.4607 97.8893C-5.15368 121.857 -5.15368 160.718 35.4614 184.687Z" fill="#F3F2F1"/>
<path d="M185.81 160.052C193.58 164.538 193.58 171.812 185.81 176.297C178.04 180.784 165.443 180.784 157.673 176.297C149.903 171.812 149.903 164.538 157.673 160.052C165.443 155.567 178.041 155.567 185.81 160.052Z" fill="#DADBD8"/>
<path d="M159.262 20.3189L162.715 22.3125C162.697 22.1585 162.686 22.005 162.686 21.8555V20.8551C162.686 19.0754 163.935 18.3536 165.477 19.2437C166.101 19.6039 166.675 20.1753 167.14 20.8434C167.393 18.6053 169.149 17.7715 171.281 19.0029C173.588 20.3342 175.457 23.5722 175.457 26.2353V27.7319C175.457 28.4216 175.329 29.0024 175.104 29.4653L177.971 31.1207C178.826 31.6146 179.519 32.8154 179.519 33.8027C179.519 34.7896 178.826 35.1904 177.971 34.6965L159.262 23.8946C158.407 23.4007 157.714 22.2004 157.714 21.213C157.714 20.2257 158.407 19.8254 159.262 20.3189Z" fill="#E7E8E5"/>
<path d="M144.487 30.3787L147.093 31.8834C147.08 31.7667 147.071 31.651 147.071 31.538V30.7834C147.071 29.44 148.014 28.8952 149.177 29.5669C149.649 29.8389 150.082 30.2702 150.432 30.7744C150.623 29.0852 151.948 28.4562 153.558 29.3855C155.298 30.3904 156.709 32.8338 156.709 34.8436V35.9732C156.709 36.4937 156.613 36.9318 156.443 37.2811L158.607 38.531C159.252 38.9033 159.776 39.8096 159.776 40.5547C159.776 41.2999 159.252 41.602 158.607 41.2296L144.487 33.0774C143.842 32.7046 143.318 31.7983 143.318 31.0531C143.318 30.3085 143.842 30.0063 144.487 30.3787Z" fill="#E7E8E5"/>
<path d="M28.9016 115.536C28.6471 115.674 23.9395 117.01 22.1957 114.707C20.4519 112.403 23.3452 108.813 21.7094 107.49C20.0737 106.166 15.4898 107.497 14.3862 104.71C13.2828 101.922 16.5536 100.728 14.7156 97.9227C13.5577 96.1555 10.7149 95.1659 10.4643 93.5325C10.0457 90.8023 14.57 89.548 18.4393 92.1251C22.309 94.7026 24.6482 93.5217 25.8763 93.3488C27.1041 93.1755 29.7504 93.5573 29.6656 97.8668C29.5807 102.177 28.9016 115.536 28.9016 115.536Z" fill="url(#paint0_linear_1_392)"/>
<path d="M29.2127 109.406C29.0894 109.406 28.9806 109.317 28.9598 109.191C27.6125 101.013 18.1051 94.3565 13.1621 92.9279C13.0258 92.8888 12.9473 92.7465 12.9867 92.6105C13.0258 92.475 13.1681 92.3967 13.3042 92.4354C18.3596 93.8959 28.0835 100.716 29.4661 109.108C29.4892 109.248 29.3942 109.38 29.2548 109.403L29.2127 109.406Z" fill="white"/>
<path d="M18.0038 102.561C17.9161 102.561 17.8309 102.516 17.7831 102.436C17.7108 102.314 17.7507 102.157 17.8722 102.084C18.0263 101.992 21.6841 99.8543 25.2884 100.855C25.4248 100.892 25.5049 101.034 25.4669 101.17C25.4287 101.307 25.2891 101.388 25.1512 101.349C21.7606 100.408 18.17 102.504 18.1346 102.525C18.0933 102.549 18.0485 102.561 18.0038 102.561Z" fill="white"/>
<path d="M30.7268 118.677C30.7268 119.843 31.5997 121.292 32.6765 121.914L87.3007 153.451C88.3772 154.073 90.1227 154.073 91.1996 153.451L165.941 110.3C167.017 109.678 167.89 108.229 167.89 107.062C167.89 105.896 167.018 104.447 165.941 103.825L111.316 72.2878C110.239 71.666 108.494 71.666 107.417 72.2878L32.676 115.439C31.5993 116.061 30.7264 117.51 30.7268 118.677Z" fill="#273E47"/>
<path d="M89.2511 149.698V153.916C88.5442 153.916 87.8373 153.763 87.3016 153.453L32.6752 121.914C31.5995 121.293 30.7261 119.843 30.7261 118.677C30.7261 117.583 31.4957 116.241 32.4772 115.566C31.6038 116.192 31.6714 117.11 32.6752 117.691L87.3016 149.229C87.8373 149.54 88.5442 149.698 89.2511 149.698Z" fill="#17282F"/>
<path d="M28.8979 115.509C27.8879 114.926 27.069 113.445 27.069 112.202L27.0688 47.016C27.0688 45.7724 27.9415 44.2606 29.0184 43.6393L103.759 0.487671C104.836 -0.134087 106.528 -0.165619 107.537 0.417877C108.548 1.00092 109.367 2.48128 109.367 3.72481V68.911C109.367 70.1541 108.494 71.6659 107.417 72.2877L32.6759 115.439C31.5993 116.061 29.9078 116.092 28.8979 115.509Z" fill="#33535F"/>
<path d="M32.4457 115.557C31.3697 116.061 29.839 116.052 28.8981 115.507C27.8894 114.927 27.0701 113.445 27.0701 112.203V47.0142C27.0701 46.3929 27.2862 45.7041 27.6418 45.0963L31.2977 47.2033V47.2078C30.9464 47.8201 30.726 48.5045 30.726 49.1258V114.314C30.726 115.467 31.4779 115.985 32.4457 115.557Z" fill="#17282F"/>
<path d="M30.7263 49.1276V114.314C30.7263 115.557 31.5992 116.061 32.6758 115.439L107.417 72.2878C108.494 71.666 109.367 70.1541 109.367 68.911V3.72487C109.367 2.48134 108.494 1.97753 107.417 2.5993L32.6758 45.7509C31.5992 46.3727 30.7263 47.8845 30.7263 49.1276Z" fill="#273E47"/>
<path d="M32.6759 117.69L87.3006 149.228C88.3771 149.849 90.1226 149.849 91.1996 149.228L165.941 106.076C167.017 105.454 167.017 104.447 165.941 103.825L111.316 72.2877C110.239 71.6659 108.494 71.6659 107.417 72.2877L32.6759 115.439C31.5992 116.061 31.5992 117.069 32.6759 117.69Z" fill="#33535F"/>
<path d="M33.7246 49.3688L105.785 7.77546C106.431 7.40221 106.954 7.70477 106.954 8.4508V64.8796C106.954 65.6252 106.431 66.5329 105.785 66.9056L33.7246 108.498C33.0784 108.871 32.5547 108.568 32.5547 107.823V51.3944C32.5547 50.6484 33.0784 49.7416 33.7246 49.3688Z" fill="white"/>
<path d="M33.202 108.658C32.8181 108.658 32.5547 108.352 32.5547 107.823V51.3945C32.5547 50.6485 33.0784 49.7417 33.7246 49.3689L105.785 7.77557C105.972 7.66707 106.15 7.61575 106.307 7.61575C106.691 7.61575 106.954 7.9219 106.954 8.45091V64.8797C106.954 65.6253 106.431 66.533 105.785 66.9057L33.7246 108.498C33.5367 108.606 33.3593 108.658 33.202 108.658Z" fill="url(#paint1_linear_1_392)"/>
<path d="M69.6009 45.8008C71.5198 44.6928 73.0749 45.591 73.0749 47.8061C73.0749 50.0212 71.5198 52.7154 69.6009 53.823C67.6825 54.9305 66.127 54.0328 66.127 51.8172C66.127 49.6021 67.6825 46.9084 69.6009 45.8008Z" fill="#EDEDEB"/>
<path d="M76.4468 57.6486C76.4468 54.009 73.8913 52.3931 70.7397 54.2129L68.7691 55.3506C65.618 57.1705 63.062 61.5962 63.062 65.2358V66.2151L76.4468 58.4928V57.6486Z" fill="#EDEDEB"/>
<path d="M83.2151 59.4467C83.0877 59.1532 82.7644 59.0793 82.3984 59.2887L59.0239 72.7757C58.788 72.9112 58.5683 73.1471 58.4134 73.4213C58.2554 73.6924 58.1604 73.9958 58.1604 74.2736V77.0236C58.1604 77.4918 58.4395 77.721 58.8173 77.6147L58.8785 77.5954C58.9303 77.576 58.9785 77.5499 59.0239 77.5242L82.3984 64.0372C82.8761 63.7626 83.2633 63.0913 83.2633 62.5393V59.7893C83.2633 59.679 83.2507 59.5413 83.2151 59.4467Z" fill="#EDEDEB"/>
<path d="M61.1364 73.1166C61.5898 72.8545 61.9576 73.0671 61.9576 73.5907C61.9576 74.1143 61.5898 74.7509 61.1364 75.0129C60.683 75.2745 60.3152 75.062 60.3152 74.5384C60.3152 74.0148 60.683 73.3782 61.1364 73.1166Z" fill="url(#paint2_linear_1_392)"/>
<path d="M63.8527 71.548C64.3061 71.2864 64.6739 71.4985 64.6739 72.0225C64.6739 72.5461 64.3061 73.1827 63.8527 73.4443C63.3993 73.7064 63.0315 73.4943 63.0315 72.9702C63.0315 72.4466 63.3993 71.81 63.8527 71.548Z" fill="url(#paint3_linear_1_392)"/>
<path d="M66.569 69.9797C67.0224 69.7181 67.3902 69.9306 67.3902 70.4543C67.3902 70.9779 67.0224 71.6145 66.569 71.8761C66.1156 72.1381 65.7478 71.9261 65.7478 71.4024C65.7478 70.8784 66.1156 70.2418 66.569 69.9797Z" fill="url(#paint4_linear_1_392)"/>
<path d="M69.2851 68.4117C69.7385 68.1501 70.1058 68.3622 70.1058 68.8858C70.1058 69.4094 69.7385 70.0465 69.2851 70.3081C68.8317 70.5701 68.4639 70.3576 68.4639 69.834C68.4639 69.3104 68.8317 68.6737 69.2851 68.4117Z" fill="url(#paint5_linear_1_392)"/>
<path d="M72.0014 66.8436C72.4548 66.582 72.8226 66.7941 72.8226 67.3177C72.8226 67.8413 72.4548 68.4779 72.0014 68.7399C71.548 69.002 71.1802 68.7895 71.1802 68.2659C71.1802 67.7422 71.548 67.1056 72.0014 66.8436Z" fill="url(#paint6_linear_1_392)"/>
<path d="M74.7177 65.2755C75.1711 65.0139 75.5385 65.2259 75.5385 65.7496C75.5385 66.2732 75.1711 66.9102 74.7177 67.1718C74.2643 67.4339 73.8965 67.2214 73.8965 66.6977C73.8965 66.1741 74.2643 65.5375 74.7177 65.2755Z" fill="url(#paint7_linear_1_392)"/>
<path d="M77.4338 63.7073C77.8871 63.4457 78.2545 63.6578 78.2545 64.1814C78.2545 64.705 77.8871 65.3421 77.4338 65.6037C76.9799 65.8652 76.6125 65.6532 76.6125 65.1296C76.6125 64.606 76.9799 63.9689 77.4338 63.7073Z" fill="url(#paint8_linear_1_392)"/>
<path d="M80.1496 62.1391C80.6035 61.877 80.9708 62.0896 80.9708 62.6132C80.9708 63.1368 80.6035 63.7734 80.1496 64.0354C79.6967 64.297 79.3289 64.085 79.3289 63.5613C79.3289 63.0377 79.6967 62.4007 80.1496 62.1391Z" fill="url(#paint9_linear_1_392)"/>
<path d="M39.0164 116.003L108.392 75.9485C108.931 75.6378 109.804 75.6378 110.342 75.9485L113.89 77.9975C114.429 78.3081 114.429 78.8119 113.89 79.1226L44.5039 119.17C43.9656 119.481 43.0926 119.481 42.5542 119.17L39.0164 117.128C38.4779 116.817 38.4779 116.313 39.0164 116.003Z" fill="#273E47"/>
<path d="M48.1614 121.282L117.537 81.2274C118.075 80.9167 118.948 80.9167 119.486 81.2274L141.312 93.8288C141.85 94.1395 141.85 94.6437 141.312 94.9544L72.0158 134.953C71.4773 135.264 70.6039 135.265 70.0645 134.956L48.1635 122.404C47.6239 122.095 47.6232 121.593 48.1614 121.282Z" fill="#17282F"/>
<path d="M85.4852 104.225C85.5842 104.282 85.7395 104.285 85.8318 104.232L88.0037 102.978C88.096 102.925 88.0911 102.835 87.9916 102.778L85.4798 101.328C85.3807 101.27 85.2254 101.267 85.1335 101.321L82.9612 102.575C82.8689 102.628 82.8743 102.718 82.9733 102.775L85.4852 104.225ZM111.331 88.2383C111.43 88.296 111.586 88.2991 111.678 88.2456L113.85 86.9917C113.942 86.9381 113.937 86.8489 113.838 86.7913L113.169 86.4055C113.07 86.3483 112.915 86.3451 112.823 86.3987L110.651 87.6526C110.558 87.7057 110.564 87.7953 110.663 87.8525L111.331 88.2383ZM130.893 95.6739L133.066 94.42C133.158 94.3664 133.153 94.2772 133.053 94.2201L130.541 92.7699C130.443 92.7127 130.287 92.7096 130.195 92.7622L128.023 94.0166C127.93 94.0702 127.936 94.1593 128.035 94.2165L130.547 95.6671C130.646 95.7243 130.801 95.727 130.893 95.6739ZM122.957 87.6193C123.056 87.6765 123.211 87.6792 123.303 87.626L125.476 86.3722C125.568 86.3186 125.563 86.2294 125.464 86.1722L122.952 84.7221C122.853 84.6644 122.697 84.6613 122.605 84.7144L120.433 85.9692C120.341 86.0223 120.346 86.1119 120.445 86.1687L122.957 87.6193ZM117.681 84.5731C117.78 84.6298 117.935 84.6334 118.027 84.5798L120.2 83.3259C120.292 83.2723 120.286 83.1832 120.187 83.126L119.519 82.7397C119.419 82.6825 119.264 82.6794 119.172 82.733L117 83.9869C116.907 84.04 116.913 84.1296 117.012 84.1868L117.681 84.5731ZM108.157 90.0717C108.256 90.1289 108.411 90.132 108.503 90.0784L110.675 88.8241C110.768 88.7714 110.762 88.6818 110.663 88.6246L109.995 88.2383C109.896 88.1812 109.74 88.178 109.648 88.2312L107.476 89.4855C107.384 89.5386 107.389 89.6282 107.488 89.6854L108.157 90.0717ZM91.8347 100.559C91.9338 100.616 92.0891 100.62 92.1814 100.566L94.3533 99.3121C94.4456 99.259 94.4402 99.1694 94.3407 99.1122L91.8293 97.6621C91.7303 97.6049 91.5749 97.6017 91.4826 97.6549L89.3107 98.9087C89.2184 98.9623 89.2239 99.0519 89.3229 99.1091L91.8347 100.559ZM88.6597 102.392C88.7592 102.449 88.9141 102.452 89.0064 102.399L91.1787 101.145C91.271 101.092 91.2652 101.002 91.1666 100.945L88.6548 99.4949C88.5553 99.4378 88.4004 99.4346 88.3081 99.4877L86.1357 100.742C86.0434 100.795 86.0493 100.885 86.1483 100.942L88.6597 102.392ZM102.061 94.6554C102.159 94.7122 102.315 94.7158 102.407 94.6626L104.579 93.4083C104.671 93.3547 104.666 93.2656 104.567 93.2084L102.055 91.7582C101.956 91.7006 101.801 91.6979 101.709 91.751L99.5368 93.0049C99.444 93.0585 99.4499 93.1476 99.5489 93.2053L102.061 94.6554ZM95.0093 98.7259C95.1088 98.7831 95.2637 98.7867 95.3559 98.7332L97.5283 97.4793C97.6201 97.4261 97.6147 97.3366 97.5157 97.2794L95.0039 95.8287C94.9048 95.772 94.7499 95.7689 94.6576 95.822L92.4853 97.0763C92.393 97.1294 92.3989 97.219 92.4979 97.2762L95.0093 98.7259ZM105.235 92.8221C105.334 92.8797 105.49 92.8829 105.582 92.8293L107.754 91.5754C107.846 91.5223 107.84 91.4327 107.742 91.3751L105.23 89.9249C105.131 89.8677 104.976 89.8646 104.883 89.9182L102.711 91.172C102.619 91.2252 102.624 91.3152 102.723 91.3719L105.235 92.8221ZM98.8862 96.4879C98.9848 96.545 99.1401 96.5486 99.2324 96.4951L101.404 95.2412C101.497 95.1881 101.491 95.098 101.392 95.0408L98.8808 93.5911C98.7813 93.5335 98.6259 93.5303 98.5341 93.5839L96.3618 94.8378C96.2695 94.8909 96.2749 94.981 96.3739 95.0381L98.8862 96.4879ZM114.506 86.4055C114.605 86.4631 114.76 86.4658 114.853 86.4127L117.025 85.1588C117.117 85.1057 117.111 85.0161 117.012 84.9584L116.344 84.5726C116.245 84.5154 116.09 84.5123 115.998 84.5654L113.825 85.8197C113.733 85.8729 113.738 85.9624 113.838 86.0196L114.506 86.4055ZM99.982 113.52L102.154 112.267C102.246 112.213 102.241 112.124 102.142 112.066L99.63 110.616C99.5309 110.559 99.376 110.556 99.2833 110.609L97.1114 111.864C97.0191 111.916 97.0245 112.006 97.124 112.063L99.6354 113.514C99.7344 113.571 99.8897 113.574 99.982 113.52ZM93.6325 117.187L95.8044 115.932C95.8971 115.879 95.8917 115.79 95.7927 115.732L93.2808 114.282C93.1818 114.225 93.0265 114.222 92.9342 114.275L90.7618 115.529C90.67 115.582 90.6754 115.672 90.7744 115.729L93.2863 117.179C93.3849 117.237 93.5402 117.24 93.6325 117.187ZM96.807 115.354L98.9794 114.1C99.0717 114.046 99.0663 113.957 98.9672 113.9L96.4554 112.449C96.3563 112.392 96.201 112.389 96.1087 112.442L93.9364 113.696C93.8445 113.75 93.8499 113.839 93.949 113.896L96.4604 115.347C96.5599 115.404 96.7152 115.407 96.807 115.354ZM84.1084 122.685L86.2807 121.431C86.373 121.378 86.3676 121.288 86.2681 121.231L83.7567 119.781C83.6577 119.724 83.5024 119.721 83.4101 119.774L81.2377 121.028C81.1454 121.081 81.1513 121.171 81.2503 121.228L83.7621 122.678C83.8612 122.735 84.0161 122.738 84.1084 122.685ZM90.4579 119.02L92.6303 117.765C92.7221 117.712 92.7167 117.622 92.6177 117.565L90.1058 116.115C90.0068 116.058 89.8519 116.055 89.7596 116.108L87.5877 117.362C87.495 117.415 87.5008 117.505 87.5994 117.562L90.1112 119.012C90.2107 119.069 90.3656 119.073 90.4579 119.02ZM87.2834 120.852L89.4553 119.598C89.5476 119.545 89.5422 119.455 89.4431 119.398L86.9313 117.948C86.8322 117.891 86.6769 117.888 86.5846 117.941L84.4127 119.195C84.3204 119.248 84.3258 119.338 84.4249 119.395L86.9367 120.845C87.0357 120.902 87.1911 120.906 87.2834 120.852ZM117.179 103.384C117.279 103.442 117.434 103.445 117.526 103.392L119.698 102.137C119.791 102.084 119.785 101.995 119.686 101.937L117.174 100.487C117.075 100.43 116.92 100.427 116.828 100.48L114.656 101.734C114.564 101.787 114.569 101.877 114.668 101.934L117.179 103.384ZM103.157 111.688L105.329 110.434C105.421 110.381 105.415 110.291 105.316 110.234L102.805 108.784C102.706 108.726 102.551 108.723 102.458 108.776L100.286 110.031C100.194 110.084 100.199 110.173 100.299 110.231L102.81 111.68C102.909 111.738 103.064 111.741 103.157 111.688ZM120.956 97.2681L123.128 96.0142C123.221 95.9607 123.215 95.8711 123.116 95.8143L120.604 94.3642C120.505 94.3065 120.35 94.3034 120.258 94.3565L118.085 95.6108C117.993 95.6644 117.998 95.7535 118.098 95.8107L120.61 97.2609C120.708 97.3185 120.864 97.3212 120.956 97.2681ZM124.198 99.3329C124.297 99.39 124.452 99.3927 124.544 99.3396L126.716 98.0857C126.808 98.0322 126.803 97.943 126.704 97.8854L124.192 96.4356C124.093 96.378 123.938 96.3749 123.845 96.4284L121.674 97.6828C121.581 97.7355 121.587 97.8255 121.686 97.8827L124.198 99.3329ZM106.331 109.855L112.681 106.189C112.773 106.136 112.768 106.046 112.668 105.989L110.157 104.539C110.058 104.482 109.902 104.479 109.81 104.532L103.461 108.198C103.369 108.251 103.374 108.341 103.473 108.398L105.985 109.847C106.084 109.905 106.239 109.908 106.331 109.855ZM113.524 97.4153L115.697 96.161C115.789 96.1079 115.784 96.0183 115.685 95.9611L113.173 94.5109C113.074 94.4537 112.919 94.4506 112.827 94.5042L110.654 95.7581C110.561 95.8112 110.567 95.9008 110.667 95.958L113.178 97.4081C113.277 97.4653 113.432 97.4689 113.524 97.4153ZM127.719 97.5067L129.891 96.2528C129.983 96.1993 129.978 96.1097 129.879 96.0525L127.367 94.6028C127.268 94.5451 127.113 94.5424 127.02 94.5956L124.848 95.8494C124.756 95.903 124.761 95.9926 124.86 96.0498L127.372 97.4995C127.471 97.5567 127.627 97.5603 127.719 97.5067ZM120.763 102.559C120.664 102.502 120.508 102.498 120.416 102.552L118.244 103.806C118.152 103.859 118.157 103.949 118.256 104.006L120.768 105.456C120.867 105.513 121.022 105.516 121.114 105.463L123.287 104.209C123.379 104.156 123.373 104.066 123.275 104.009L120.763 102.559ZM109.4 109.119C109.301 109.061 109.146 109.058 109.054 109.111L106.381 110.655C106.288 110.708 106.294 110.798 106.393 110.855L108.905 112.305C109.004 112.362 109.159 112.366 109.251 112.312L111.925 110.769C112.017 110.716 112.011 110.626 111.912 110.569L109.4 109.119ZM75.8156 128.508C75.7166 128.451 75.5617 128.449 75.4689 128.502L72.7955 130.045C72.7032 130.099 72.7091 130.188 72.8081 130.245L75.3195 131.695C75.419 131.752 75.5738 131.756 75.6661 131.703L78.3396 130.159C78.4319 130.106 78.4265 130.016 78.3274 129.959L75.8156 128.508ZM102.049 113.363C101.95 113.306 101.795 113.303 101.702 113.356L99.0289 114.899C98.9362 114.953 98.942 115.043 99.0411 115.1L101.553 116.55C101.651 116.607 101.807 116.61 101.9 116.557L104.573 115.013C104.665 114.96 104.659 114.871 104.56 114.813L102.049 113.363ZM79.4917 126.387C79.3927 126.329 79.2374 126.326 79.1451 126.379L76.4716 127.923C76.3793 127.976 76.3852 128.066 76.4842 128.123L78.9956 129.573C79.0946 129.63 79.25 129.634 79.3423 129.58L82.0157 128.037C82.108 127.984 82.1026 127.894 82.0035 127.837L79.4917 126.387ZM98.3729 115.486C98.2734 115.428 98.1185 115.425 98.0262 115.478L80.1477 125.801C80.0554 125.854 80.0608 125.944 80.1599 126.001L82.6717 127.451C82.7707 127.508 82.9256 127.511 83.0184 127.458L100.897 117.136C100.989 117.083 100.983 116.993 100.884 116.936L98.3729 115.486ZM113.745 106.61C113.646 106.553 113.491 106.55 113.398 106.604L110.056 108.533C109.964 108.586 109.97 108.676 110.069 108.733L112.581 110.183C112.679 110.24 112.835 110.243 112.927 110.19L116.269 108.26C116.361 108.207 116.355 108.118 116.256 108.061L113.745 106.61ZM105.725 111.241C105.626 111.184 105.47 111.181 105.378 111.234L102.705 112.777C102.612 112.831 102.618 112.92 102.717 112.977L105.229 114.428C105.328 114.484 105.483 114.488 105.575 114.435L108.249 112.891C108.341 112.838 108.335 112.748 108.236 112.691L105.725 111.241ZM139.816 94.4587L133.716 90.9366C133.617 90.8794 133.462 90.8762 133.37 90.9294L131.197 92.1837C131.105 92.2368 131.111 92.3269 131.21 92.3836L137.309 95.9057C137.409 95.9629 137.564 95.9661 137.656 95.9125L139.828 94.6586C139.92 94.6055 139.915 94.5154 139.816 94.4587ZM134.13 94.8414C134.03 94.7842 133.876 94.7806 133.783 94.8337L131.611 96.0885C131.519 96.1416 131.524 96.2312 131.624 96.288L134.135 97.7386C134.234 97.7958 134.389 97.7985 134.481 97.7453L136.654 96.4915C136.746 96.4383 136.74 96.3487 136.641 96.2916L134.13 94.8414ZM117.588 104.392C117.489 104.334 117.333 104.331 117.241 104.384L115.069 105.639C114.977 105.692 114.983 105.781 115.081 105.839L117.593 107.289C117.692 107.346 117.848 107.349 117.94 107.296L120.112 106.042C120.204 105.989 120.199 105.899 120.1 105.842L117.588 104.392ZM80.9338 124.518L83.1062 123.264C83.198 123.211 83.1926 123.121 83.0936 123.064L80.5817 121.614C80.4827 121.557 80.3278 121.553 80.2355 121.607L78.0636 122.861C77.9709 122.914 77.9767 123.004 78.0758 123.061L80.5871 124.511C80.6862 124.568 80.8415 124.571 80.9338 124.518ZM123.937 100.726C123.838 100.669 123.683 100.666 123.591 100.719L121.419 101.973C121.326 102.026 121.332 102.116 121.431 102.173L123.943 103.623C124.042 103.68 124.197 103.683 124.289 103.63L126.461 102.376C126.554 102.323 126.548 102.233 126.449 102.176L123.937 100.726ZM130.955 96.6743C130.856 96.6171 130.701 96.6139 130.609 96.6671L125.262 99.7543C125.17 99.8074 125.175 99.897 125.274 99.9542L127.786 101.404C127.885 101.462 128.04 101.465 128.133 101.411L133.479 98.3243C133.571 98.2712 133.566 98.1816 133.466 98.1245L130.955 96.6743ZM63.6748 116.817C63.7738 116.875 63.9287 116.878 64.021 116.825L66.1929 115.57C66.2857 115.517 66.2798 115.428 66.1812 115.37L63.6694 113.92C63.5703 113.863 63.415 113.86 63.3227 113.913L61.1504 115.167C61.0585 115.22 61.0639 115.31 61.163 115.367L63.6748 116.817ZM66.8493 114.985C66.9484 115.042 67.1033 115.045 67.1956 114.991L69.3679 113.737C69.4602 113.684 69.4548 113.595 69.3558 113.538L66.8439 112.087C66.7449 112.03 66.5896 112.027 66.4973 112.08L64.3254 113.334C64.2331 113.388 64.2385 113.477 64.3375 113.534L66.8493 114.985ZM72.1395 130.631C72.0405 130.574 71.8856 130.571 71.7933 130.624L68.4517 132.553C68.3594 132.607 68.3648 132.697 68.4639 132.754L70.9757 134.203C71.0747 134.261 71.2296 134.264 71.3219 134.211L74.6635 132.281C74.7562 132.228 74.7504 132.138 74.6513 132.081L72.1395 130.631ZM71.4052 112.354C71.5042 112.411 71.6596 112.414 71.7519 112.361L73.9238 111.107C74.0161 111.054 74.0107 110.964 73.9116 110.907L71.3998 109.457C71.3007 109.4 71.1459 109.396 71.0536 109.45L68.8812 110.704C68.7889 110.757 68.7948 110.847 68.8938 110.904L71.4052 112.354ZM77.7548 108.688C77.8538 108.745 78.0091 108.749 78.1014 108.695L80.2733 107.441C80.3656 107.388 80.3602 107.298 80.2612 107.241L77.7493 105.791C77.6503 105.734 77.495 105.731 77.4027 105.784L75.2308 107.038C75.1385 107.091 75.1439 107.181 75.2429 107.238L77.7548 108.688ZM60.4998 118.65C60.5988 118.707 60.7542 118.711 60.8465 118.658L63.0188 117.403C63.1107 117.35 63.1053 117.26 63.0062 117.203L60.4944 115.753C60.3953 115.696 60.2405 115.693 60.1482 115.746L57.9758 117C57.8835 117.053 57.8894 117.143 57.9884 117.2L60.4998 118.65ZM74.5797 110.521C74.6792 110.579 74.8341 110.582 74.9264 110.528L77.0988 109.274C77.1911 109.221 77.1857 109.131 77.0862 109.074L74.5748 107.624C74.4753 107.567 74.3204 107.563 74.2281 107.617L72.0558 108.871C71.9635 108.924 71.9693 109.014 72.0679 109.071L74.5797 110.521ZM80.9293 106.855C81.0284 106.912 81.1837 106.916 81.2755 106.862L83.4479 105.608C83.5402 105.555 83.5348 105.465 83.4357 105.408L80.9244 103.958C80.8249 103.901 80.6695 103.898 80.5772 103.951L78.4053 105.205C78.313 105.258 78.3184 105.348 78.4175 105.405L80.9293 106.855ZM70.3949 130.395L67.8831 128.946C67.7845 128.888 67.6287 128.885 67.5368 128.938L64.8634 130.482C64.7711 130.535 64.7765 130.625 64.8755 130.682L67.3874 132.132C67.4864 132.189 67.6417 132.192 67.7336 132.139L70.4075 130.596C70.4993 130.542 70.4939 130.453 70.3949 130.395ZM68.3108 127.455L65.799 126.006C65.6999 125.949 65.5446 125.945 65.4523 125.998L61.2751 128.41C61.1828 128.463 61.1882 128.553 61.2872 128.61L63.7991 130.06C63.8981 130.118 64.0534 130.121 64.1457 130.068L68.3229 127.656C68.4152 127.603 68.4098 127.513 68.3108 127.455ZM57.3252 120.483C57.4243 120.54 57.5796 120.544 57.6719 120.49L59.8438 119.236C59.9361 119.182 59.9307 119.093 59.8316 119.036L57.3198 117.586C57.2208 117.529 57.0654 117.526 56.9732 117.579L54.8013 118.833C54.709 118.886 54.7144 118.976 54.8134 119.033L57.3252 120.483ZM55.2753 121.666L52.764 120.216C52.6649 120.159 52.5096 120.156 52.4173 120.209L49.744 121.753C49.6518 121.806 49.6571 121.896 49.7563 121.953L52.2678 123.403C52.3669 123.46 52.5227 123.463 52.6145 123.41L55.2879 121.866C55.3802 121.813 55.3748 121.724 55.2753 121.666ZM63.8868 125.867L61.375 124.416C61.2764 124.359 61.1211 124.356 61.0288 124.409L57.6868 126.339C57.5945 126.392 57.6003 126.482 57.6994 126.539L60.2112 127.989C60.3102 128.046 60.4651 128.049 60.5574 127.996L63.8995 126.066C63.9917 126.013 63.9859 125.924 63.8868 125.867ZM59.1293 124.47L56.6175 123.02C56.5184 122.963 56.3631 122.96 56.2708 123.013L54.0989 124.267C54.0066 124.32 54.012 124.41 54.1111 124.467L56.6229 125.917C56.7219 125.974 56.8773 125.977 56.9696 125.924L59.1414 124.67C59.2337 124.617 59.2283 124.528 59.1293 124.47ZM77.7593 126.351L79.9312 125.097C80.0235 125.044 80.018 124.954 79.919 124.897L77.4072 123.447C77.3081 123.389 77.1532 123.386 77.061 123.44L74.8886 124.694C74.7963 124.747 74.8017 124.836 74.9008 124.894L77.4126 126.344C77.5116 126.401 77.667 126.404 77.7593 126.351ZM80.0766 113.412L77.9047 114.666C77.8124 114.719 77.8178 114.809 77.9168 114.866L80.4291 116.316C80.5277 116.374 80.683 116.377 80.7753 116.323L82.9472 115.069C83.0395 115.016 83.0341 114.926 82.9351 114.869L80.4233 113.419C80.3246 113.361 80.1689 113.358 80.0766 113.412ZM76.9025 115.244L74.7301 116.499C74.6378 116.552 74.6432 116.642 74.7423 116.699L77.2541 118.149C77.3531 118.206 77.5085 118.21 77.6008 118.156L79.7727 116.902C79.865 116.849 79.8596 116.759 79.7605 116.702L77.2487 115.252C77.1496 115.195 76.9943 115.191 76.9025 115.244ZM89.6011 107.913L87.4288 109.167C87.3365 109.221 87.3423 109.31 87.4409 109.367L89.9528 110.818C90.0518 110.874 90.2071 110.878 90.2994 110.824L92.4713 109.57C92.5636 109.517 92.5582 109.428 92.4592 109.37L89.9474 107.92C89.8483 107.863 89.6934 107.86 89.6011 107.913ZM83.2516 111.579L81.0792 112.833C80.9874 112.886 80.9928 112.976 81.0918 113.033L83.6032 114.483C83.7027 114.541 83.8576 114.543 83.9499 114.49L86.1222 113.236C86.2145 113.183 86.2087 113.094 86.1096 113.036L83.5983 111.586C83.4988 111.529 83.3439 111.525 83.2516 111.579ZM86.4261 109.746L84.2542 111C84.1619 111.053 84.1673 111.143 84.2664 111.2L86.7782 112.65C86.8773 112.707 87.0321 112.711 87.1244 112.657L89.2968 111.403C89.3891 111.35 89.3837 111.26 89.2846 111.203L86.7728 109.753C86.6738 109.696 86.5184 109.693 86.4261 109.746ZM73.7275 117.078L71.5556 118.332C71.4628 118.385 71.4687 118.474 71.5677 118.532L74.0795 119.982C74.1786 120.039 74.3335 120.042 74.4262 119.989L76.5981 118.735C76.69 118.681 76.685 118.592 76.5855 118.535L74.0741 117.084C73.9751 117.027 73.8198 117.025 73.7275 117.078ZM70.5529 118.911L68.3806 120.164C68.2883 120.218 68.2941 120.308 68.3927 120.365L70.905 121.815C71.0036 121.872 71.1589 121.875 71.2512 121.822L73.4236 120.568C73.5159 120.515 73.51 120.425 73.411 120.367L70.8996 118.918C70.8001 118.861 70.6452 118.857 70.5529 118.911ZM82.0243 119.745L84.1962 118.491C84.2885 118.438 84.2831 118.349 84.184 118.291L81.6722 116.841C81.5736 116.784 81.4183 116.781 81.326 116.834L79.1536 118.088C79.0613 118.141 79.0667 118.231 79.1658 118.288L81.6776 119.738C81.7766 119.795 81.932 119.799 82.0243 119.745ZM78.8493 121.578L81.0216 120.324C81.1139 120.271 81.1085 120.182 81.0094 120.124L78.4976 118.674C78.3986 118.617 78.2432 118.613 78.151 118.667L75.9791 119.921C75.8868 119.974 75.8922 120.064 75.9912 120.121L78.503 121.571C78.6021 121.629 78.7574 121.631 78.8493 121.578ZM75.6747 123.411L77.8466 122.157C77.9389 122.104 77.9339 122.014 77.8344 121.957L75.3231 120.507C75.224 120.45 75.0687 120.446 74.9764 120.5L72.8041 121.754C72.7122 121.807 72.7176 121.897 72.8167 121.954L75.3285 123.404C75.4275 123.461 75.5824 123.465 75.6747 123.411ZM67.3784 120.743L65.206 121.998C65.1137 122.051 65.1191 122.14 65.2182 122.198L67.73 123.647C67.829 123.705 67.9839 123.708 68.0767 123.655L70.2486 122.401C70.3409 122.348 70.3355 122.258 70.2364 122.201L67.7246 120.75C67.6255 120.693 67.4702 120.69 67.3784 120.743ZM72.1535 125.237C72.2525 125.294 72.4079 125.297 72.5001 125.244L74.6725 123.99C74.7643 123.937 74.7589 123.847 74.6599 123.79L72.1481 122.34C72.049 122.283 71.8941 122.279 71.8018 122.333L69.6295 123.587C69.5372 123.64 69.5431 123.73 69.6421 123.787L72.1535 125.237ZM95.9502 104.247L93.7779 105.501C93.6856 105.555 93.6915 105.644 93.7905 105.701L96.3023 107.152C96.4014 107.209 96.5563 107.212 96.6485 107.159L98.8209 105.904C98.9132 105.851 98.9078 105.762 98.8083 105.705L96.2969 104.254C96.1979 104.197 96.0425 104.194 95.9502 104.247ZM123.784 95.428C123.883 95.4852 124.039 95.4884 124.131 95.4352L126.303 94.1814C126.395 94.1278 126.39 94.0382 126.291 93.981L123.779 92.5308C123.68 92.4736 123.524 92.4705 123.432 92.5236L121.26 93.778C121.168 93.8311 121.173 93.9211 121.272 93.9779L123.784 95.428ZM92.7757 106.08L90.6033 107.334C90.511 107.387 90.5169 107.477 90.616 107.534L93.1278 108.984C93.2268 109.042 93.3817 109.045 93.474 108.992L95.6463 107.738C95.7386 107.684 95.7328 107.595 95.6337 107.537L93.1219 106.087C93.0229 106.03 92.868 106.027 92.7757 106.08ZM116.67 92.2854L114.497 93.5393C114.405 93.5925 114.41 93.682 114.51 93.7392L117.021 95.189C117.12 95.2466 117.275 95.2497 117.368 95.1966L119.54 93.9423C119.632 93.8887 119.627 93.7996 119.527 93.7424L117.016 92.2922C116.917 92.235 116.762 92.2319 116.67 92.2854ZM124.034 88.2406L130.133 91.7623C130.233 91.8195 130.387 91.8226 130.48 91.7695L132.652 90.5156C132.745 90.462 132.739 90.3724 132.64 90.3152L126.54 86.7936C126.441 86.7364 126.286 86.7332 126.193 86.7864L124.021 88.0407C123.929 88.0938 123.934 88.1834 124.034 88.2406ZM123.365 88.6264C123.266 88.5688 123.111 88.5661 123.018 88.6192L120.846 89.8736C120.755 89.9267 120.76 90.0163 120.859 90.0735L123.371 91.5237C123.469 91.5808 123.625 91.584 123.717 91.5309L125.889 90.2765C125.981 90.2234 125.976 90.1338 125.877 90.0766L123.365 88.6264ZM120.543 93.3637L122.714 92.1094C122.807 92.0563 122.801 91.9667 122.702 91.9095L120.19 90.4593C120.091 90.4021 119.937 90.399 119.844 90.4521L117.672 91.7065C117.58 91.7596 117.585 91.8492 117.684 91.9064L120.196 93.3565C120.295 93.4137 120.45 93.4169 120.543 93.3637ZM127.305 93.6024L129.477 92.348C129.57 92.2949 129.564 92.2053 129.465 92.1481L126.953 90.6979C126.854 90.6408 126.699 90.6376 126.607 90.6912L124.435 91.9451C124.342 91.9982 124.348 92.0878 124.447 92.145L126.958 93.5952C127.058 93.6523 127.213 93.6555 127.305 93.6024ZM88.3738 116.08L90.5457 114.826C90.638 114.772 90.6326 114.682 90.5331 114.626L88.0217 113.175C87.9227 113.118 87.7674 113.115 87.6751 113.168L85.5032 114.422C85.4104 114.475 85.4163 114.565 85.5153 114.622L88.0267 116.072C88.1262 116.129 88.2815 116.133 88.3738 116.08ZM119.777 86.5549C119.678 86.4978 119.523 86.4946 119.431 86.5477L117.259 87.8016C117.166 87.8552 117.172 87.9448 117.271 88.002L119.783 89.4517C119.882 89.5093 120.037 89.5125 120.129 89.4589L122.301 88.205C122.393 88.1519 122.388 88.0623 122.289 88.0047L119.777 86.5549ZM99.8236 105.326L101.995 104.072C102.088 104.018 102.082 103.929 101.983 103.872L99.4715 102.421C99.3724 102.364 99.2176 102.361 99.1248 102.414L96.9529 103.669C96.8606 103.722 96.866 103.811 96.9651 103.868L99.4769 105.319C99.5759 105.376 99.7313 105.379 99.8236 105.326ZM116.256 88.3806L114.084 89.635C113.991 89.6881 113.997 89.7777 114.096 89.8349L116.608 91.285C116.707 91.3422 116.862 91.3454 116.954 91.2918L119.127 90.0379C119.218 89.9843 119.213 89.8947 119.114 89.8376L116.602 88.3878C116.504 88.3307 116.348 88.3275 116.256 88.3806ZM109.238 92.4322L107.066 93.6866C106.974 93.7397 106.979 93.8293 107.078 93.8865L109.59 95.3366C109.689 95.3938 109.844 95.397 109.937 95.3438L112.109 94.0895C112.201 94.0364 112.195 93.9468 112.096 93.8896L109.584 92.4394C109.485 92.3822 109.331 92.3791 109.238 92.4322ZM113.081 90.2135L110.909 91.4674C110.817 91.521 110.822 91.6105 110.921 91.6677L113.433 93.1175C113.532 93.1751 113.687 93.1782 113.78 93.1251L115.952 91.8708C116.044 91.8177 116.039 91.7281 115.939 91.6709L113.428 90.2207C113.329 90.1635 113.174 90.1604 113.081 90.2135ZM85.1988 117.912L87.3712 116.659C87.4635 116.605 87.4576 116.515 87.359 116.458L84.8472 115.008C84.7477 114.951 84.5928 114.948 84.5005 115.001L82.3282 116.255C82.2359 116.309 82.2417 116.398 82.3408 116.455L84.8521 117.906C84.9512 117.963 85.1065 117.966 85.1988 117.912ZM68.9699 115.682L66.7976 116.935C66.7053 116.989 66.7107 117.078 66.8102 117.135L69.3215 118.585C69.4206 118.643 69.5759 118.646 69.6682 118.593L71.8401 117.338C71.9329 117.285 71.927 117.196 71.828 117.138L69.3161 115.688C69.2171 115.631 69.0622 115.628 68.9699 115.682ZM72.1445 113.848L69.9721 115.103C69.8798 115.156 69.8857 115.245 69.9847 115.302L72.4961 116.753C72.5956 116.81 72.7505 116.813 72.8428 116.76L75.0151 115.505C75.107 115.452 75.102 115.363 75.0025 115.306L72.4911 113.855C72.3921 113.798 72.2368 113.795 72.1445 113.848ZM75.319 112.016L73.1471 113.27C73.0548 113.323 73.0602 113.412 73.1593 113.47L75.6711 114.92C75.7697 114.977 75.9255 114.98 76.0178 114.926L78.1897 113.673C78.282 113.619 78.2766 113.53 78.1775 113.473L75.6657 112.023C75.5666 111.965 75.4113 111.962 75.319 112.016ZM81.6686 108.35L79.4962 109.604C79.4039 109.657 79.4093 109.747 79.5088 109.804L82.0202 111.254C82.1193 111.311 82.2746 111.314 82.3669 111.261L84.5388 110.007C84.6315 109.954 84.6257 109.864 84.5271 109.807L82.0153 108.357C81.9158 108.3 81.7609 108.296 81.6686 108.35ZM65.7954 117.514L63.623 118.768C63.5307 118.821 63.5366 118.911 63.6352 118.968L66.147 120.418C66.246 120.476 66.4009 120.479 66.4932 120.426L68.6656 119.172C68.7579 119.118 68.7525 119.029 68.653 118.971L66.1416 117.521C66.0425 117.464 65.8877 117.461 65.7954 117.514ZM78.4936 110.182L76.3217 111.436C76.2294 111.49 76.2348 111.579 76.3338 111.637L78.8457 113.087C78.9447 113.144 79.0996 113.147 79.1919 113.094L81.3642 111.84C81.4565 111.787 81.4511 111.697 81.3521 111.64L78.8402 110.19C78.7412 110.132 78.5859 110.129 78.4936 110.182ZM62.6204 119.347L60.4485 120.601C60.3557 120.655 60.3616 120.744 60.4606 120.801L62.9724 122.251C63.0715 122.308 63.2264 122.312 63.3187 122.258L65.491 121.004C65.5833 120.951 65.5779 120.861 65.4789 120.805L62.967 119.354C62.868 119.297 62.7127 119.294 62.6204 119.347ZM71.0635 130.01C71.1625 130.067 71.3174 130.07 71.4097 130.017L73.582 128.762C73.6743 128.709 73.6685 128.62 73.5694 128.563L71.0581 127.112C70.9586 127.055 70.8037 127.052 70.7114 127.106L68.539 128.359C68.4472 128.413 68.4522 128.502 68.5517 128.559L71.0635 130.01ZM74.5843 128.184L76.7566 126.93C76.8489 126.876 76.8435 126.787 76.7444 126.73L74.2326 125.279C74.1336 125.223 73.9782 125.219 73.8859 125.273L71.7141 126.527C71.6218 126.58 71.6272 126.669 71.7267 126.726L74.238 128.177C74.3371 128.234 74.4924 128.237 74.5843 128.184ZM64.5554 125.481C64.6545 125.538 64.8094 125.541 64.9017 125.488L67.074 124.234C67.1663 124.18 67.1604 124.09 67.0614 124.034L64.55 122.584C64.451 122.526 64.2961 122.523 64.2034 122.576L62.0315 123.83C61.9392 123.884 61.9446 123.973 62.0436 124.031L64.5554 125.481ZM59.4458 121.18L57.2735 122.434C57.1812 122.487 57.1866 122.577 57.2861 122.634L59.7974 124.084C59.8969 124.141 60.0518 124.145 60.1441 124.091L62.3165 122.837C62.4088 122.784 62.4029 122.694 62.3038 122.637L59.792 121.187C59.693 121.13 59.5381 121.127 59.4458 121.18ZM68.9789 127.07C69.078 127.127 69.2333 127.13 69.3256 127.077L71.4975 125.823C71.5898 125.77 71.5844 125.68 71.4853 125.623L68.9735 124.173C68.8745 124.116 68.7191 124.112 68.6273 124.166L66.4549 125.419C66.3626 125.473 66.3685 125.563 66.4671 125.62L68.9789 127.07ZM84.8431 106.517L82.6712 107.771C82.5789 107.824 82.5843 107.914 82.6834 107.971L85.1948 109.421C85.2943 109.478 85.4496 109.481 85.5414 109.428L87.7138 108.174C87.8061 108.121 87.8007 108.031 87.7012 107.974L85.1898 106.524C85.0908 106.467 84.9354 106.464 84.8431 106.517ZM88.0177 104.684L85.8458 105.938C85.7535 105.991 85.7589 106.081 85.8584 106.138L88.3698 107.588C88.4688 107.645 88.6237 107.649 88.716 107.595L90.8883 106.341C90.9806 106.288 90.9752 106.198 90.8762 106.141L88.3644 104.691C88.2653 104.634 88.1104 104.631 88.0177 104.684ZM104.247 106.915L109.093 104.117C109.185 104.064 109.179 103.975 109.08 103.918L102.981 100.395C102.882 100.339 102.726 100.336 102.634 100.389L100.128 101.836C100.035 101.889 100.041 101.978 100.14 102.036L103.37 103.9C103.468 103.957 103.474 104.047 103.382 104.1L101.376 105.258C101.284 105.311 101.29 105.401 101.389 105.458L103.9 106.908C103.999 106.965 104.155 106.968 104.247 106.915ZM107.175 101.081L109.347 99.8268C109.44 99.7736 109.434 99.684 109.336 99.6269L106.823 98.1767C106.724 98.1195 106.569 98.1168 106.477 98.1699L104.305 99.4238C104.213 99.4769 104.218 99.5665 104.317 99.6241L106.829 101.074C106.928 101.131 107.083 101.134 107.175 101.081ZM91.5484 114.247L93.7203 112.993C93.813 112.939 93.8072 112.85 93.7081 112.792L91.1963 111.342C91.0972 111.285 90.9424 111.282 90.8501 111.335L88.6777 112.589C88.5854 112.642 88.5913 112.732 88.6903 112.789L91.2017 114.239C91.3007 114.297 91.4561 114.3 91.5484 114.247ZM94.7229 112.414L96.8953 111.159C96.9876 111.106 96.9817 111.017 96.8827 110.96L94.3713 109.509C94.2723 109.452 94.1169 109.449 94.0246 109.503L91.8523 110.756C91.76 110.81 91.7658 110.899 91.8649 110.956L94.3767 112.407C94.4758 112.464 94.6306 112.467 94.7229 112.414ZM97.8975 110.581L100.07 109.327C100.162 109.273 100.156 109.184 100.057 109.127L97.5459 107.676C97.4468 107.619 97.2915 107.616 97.1992 107.669L95.0273 108.924C94.935 108.977 94.9404 109.066 95.0394 109.123L97.5513 110.574C97.6503 110.631 97.8052 110.634 97.8975 110.581ZM101.072 108.748L103.244 107.494C103.337 107.441 103.331 107.351 103.232 107.294L100.72 105.844C100.621 105.786 100.466 105.783 100.374 105.836L98.2018 107.091C98.1095 107.144 98.1149 107.233 98.214 107.291L100.726 108.741C100.825 108.798 100.98 108.801 101.072 108.748ZM91.1927 102.851L89.0203 104.105C88.9281 104.158 88.9339 104.248 89.0325 104.305L91.5448 105.755C91.6438 105.813 91.7987 105.816 91.891 105.762L94.0629 104.508C94.1556 104.455 94.1498 104.365 94.0507 104.308L91.5389 102.858C91.4399 102.801 91.285 102.798 91.1927 102.851ZM94.3672 101.018L92.1953 102.272C92.1031 102.326 92.1085 102.415 92.2075 102.472L94.7193 103.922C94.8179 103.979 94.9733 103.983 95.0655 103.93L97.2379 102.675C97.3302 102.622 97.3243 102.533 97.2253 102.475L94.7139 101.025C94.6144 100.968 94.4595 100.965 94.3672 101.018ZM102.889 96.098L100.716 97.3523C100.625 97.4054 100.63 97.495 100.729 97.5522L103.241 99.0024C103.34 99.0596 103.495 99.0627 103.587 99.0096L105.759 97.7553C105.852 97.7021 105.846 97.6125 105.747 97.5554L103.235 96.1052C103.136 96.048 102.981 96.0448 102.889 96.098ZM99.046 98.3171L95.3699 100.44C95.2776 100.492 95.283 100.582 95.3821 100.639L97.8939 102.089C97.9929 102.147 98.1483 102.15 98.2406 102.096L101.916 99.974C102.009 99.9208 102.003 99.8313 101.904 99.7741L99.3922 98.3239C99.2932 98.2667 99.1379 98.2636 99.046 98.3171ZM106.063 94.2651L103.891 95.5194C103.799 95.5726 103.804 95.6621 103.904 95.7193L106.415 97.1695C106.514 97.2267 106.67 97.2298 106.762 97.1767L108.934 95.9224C109.026 95.8693 109.021 95.7797 108.922 95.7225L106.41 94.2723C106.311 94.2151 106.156 94.212 106.063 94.2651ZM110.35 99.2482L112.522 97.9943C112.615 97.9408 112.609 97.8512 112.51 97.794L109.998 96.3438C109.899 96.2866 109.744 96.2835 109.652 96.3366L107.479 97.5909C107.387 97.6441 107.393 97.7336 107.492 97.7908L110.003 99.241C110.103 99.2982 110.258 99.3013 110.35 99.2482Z" fill="#33535F"/>
<path d="M99.5639 123.281L120.999 110.905C121.646 110.532 122.693 110.532 123.339 110.905L135.63 118.002C136.276 118.374 136.276 118.979 135.63 119.352L114.195 131.728C113.549 132.101 112.501 132.101 111.855 131.728L99.5639 124.632C98.9178 124.258 98.9178 123.654 99.5639 123.281Z" fill="#17282F"/>
<path d="M138.983 63.7663L138.988 63.7618L138.961 63.7437L135.302 61.6358C135.09 61.5412 134.779 61.6313 134.405 61.9149C131 64.5213 126.424 65.329 122.681 64.1386C122.442 63.9157 122.213 63.6803 121.997 63.4286L121.929 63.352H121.924C121.798 63.2125 121.672 63.1089 121.546 63.0414L121.483 63.0054L117.819 60.9019C117.401 60.7038 117.022 60.9019 116.77 61.5232C113.231 70.3162 105.69 79.2262 100.661 81.4548C100.287 81.6214 99.9403 81.878 99.6702 82.1932C99.3145 82.6029 99.0943 83.1071 99.1124 83.6339L99.8368 103.376C99.8368 109.081 102.246 115.105 107.158 118.036L110.948 120.225L111.015 120.261C112.897 121.337 115.135 121.967 117.732 121.967C118.26 121.967 118.795 121.945 119.349 121.891C120.276 121.801 121.564 121.13 122.212 120.459C133.202 109.109 138.547 93.7469 138.547 85.2466L139.272 64.5947C139.29 64.149 139.182 63.8743 138.983 63.7663Z" fill="url(#paint10_linear_1_392)"/>
<path d="M139.272 64.5947L138.547 85.2466C138.547 93.7469 133.202 109.109 122.212 120.459C121.564 121.13 120.276 121.801 119.349 121.891C118.795 121.945 118.259 121.967 117.732 121.967C115.135 121.967 112.897 121.337 111.015 120.261L110.948 120.225L110.817 120.144C105.905 117.213 103.496 111.189 103.496 105.484L102.772 85.7419C102.753 85.2151 102.974 84.7108 103.329 84.3007C103.6 83.986 103.946 83.7293 104.32 83.5628C109.349 81.3341 116.891 72.4241 120.429 63.6312C120.682 63.0099 121.064 62.8073 121.483 63.0054L121.546 63.0414C121.672 63.1089 121.798 63.2125 121.924 63.3521H121.928L121.996 63.4286C125.751 67.8003 133.135 67.7958 138.064 64.0229C138.438 63.7392 138.749 63.6492 138.96 63.7437L138.988 63.7618L138.983 63.7663C139.181 63.8743 139.29 64.149 139.272 64.5947Z" fill="url(#paint11_linear_1_392)"/>
<path d="M126.109 64.6753C124.935 64.6622 123.781 64.4867 122.698 64.144C122.696 64.1418 122.693 64.1395 122.691 64.1377C123.777 64.4839 124.933 64.6613 126.109 64.6753ZM138.962 63.7415C138.956 63.7388 138.95 63.7361 138.943 63.7339L135.302 61.6358C135.248 61.6115 135.187 61.5993 135.121 61.5993C134.927 61.5993 134.684 61.7033 134.405 61.915C133.915 62.2904 133.4 62.6281 132.867 62.9284C133.4 62.6281 133.915 62.2895 134.406 61.9136C134.684 61.702 134.928 61.598 135.121 61.598C135.188 61.598 135.248 61.6102 135.302 61.6345L138.962 63.7415ZM132.863 62.9311V62.9307V62.9311Z" fill="white"/>
<path d="M129.915 66.78C127.211 66.7805 124.609 65.9219 122.698 64.144C123.781 64.4866 124.934 64.6622 126.109 64.6752C126.159 64.6757 126.209 64.6761 126.258 64.6761C128.503 64.6761 130.817 64.0827 132.863 62.931V62.9306C132.864 62.9297 132.865 62.9292 132.867 62.9283C133.4 62.628 133.915 62.2904 134.405 61.9149C134.684 61.7033 134.927 61.5993 135.121 61.5993C135.187 61.5993 135.247 61.6114 135.301 61.6357L138.943 63.7338C138.894 63.7149 138.84 63.705 138.782 63.705C138.588 63.705 138.345 63.809 138.066 64.0201C135.693 65.8368 132.748 66.78 129.915 66.78Z" fill="url(#paint12_linear_1_392)"/>
<path d="M99.5977 82.2805C99.6211 82.2504 99.6454 82.2206 99.671 82.1918C99.6881 82.1716 99.7057 82.1518 99.7242 82.1324C99.7057 82.1522 99.6881 82.1725 99.6701 82.1932C99.6454 82.222 99.6211 82.2508 99.5977 82.2805Z" fill="#75898D"/>
<path d="M110.765 72.041C110.765 72.041 110.765 72.041 110.765 72.0406C113.145 68.8381 115.302 65.1696 116.77 61.5219C116.96 61.0546 117.221 60.8267 117.517 60.8267C117.614 60.8267 117.716 60.8515 117.819 60.9006L121.485 63.0031C121.476 62.9991 121.467 62.995 121.458 62.991L117.819 60.9019C117.715 60.8529 117.614 60.8281 117.516 60.8281C117.22 60.8281 116.96 61.0559 116.77 61.5232C115.302 65.1705 113.145 68.8385 110.765 72.041Z" fill="white"/>
<path d="M106.488 77.048C107.929 75.5982 109.384 73.8982 110.765 72.0405C110.765 72.041 110.765 72.041 110.765 72.041C109.385 73.8973 107.93 75.5978 106.49 77.0471L106.488 77.048Z" fill="#7D969B"/>
<path d="M99.9822 81.8834C100.185 81.7096 100.417 81.5584 100.662 81.4535C102.395 80.6854 104.425 79.1244 106.488 77.048L106.49 77.0471C104.426 79.1249 102.395 80.6863 100.661 81.4548C100.419 81.5629 100.188 81.7083 99.9822 81.8834Z" fill="#75898D"/>
<path d="M103.078 84.6445L99.4233 82.5339C99.476 82.4483 99.5337 82.3623 99.5976 82.2804C99.621 82.2507 99.6453 82.2219 99.6701 82.193C99.6881 82.1723 99.7056 82.1521 99.7241 82.1323C99.7583 82.0953 99.7948 82.0602 99.8331 82.0251L99.8375 82.0206L99.9006 81.9576L99.9636 81.899C99.9695 81.8936 99.9758 81.8887 99.9821 81.8833C100.188 81.7082 100.419 81.5627 100.661 81.4547C102.394 80.6861 104.426 79.1247 106.49 77.0469C107.93 75.5977 109.385 73.8972 110.765 72.0409C113.145 68.8384 115.302 65.1704 116.77 61.5231C116.96 61.0558 117.22 60.8279 117.516 60.8279C117.614 60.8279 117.715 60.8527 117.819 60.9018L121.458 62.9908C121.364 62.9503 121.272 62.9296 121.183 62.9296C120.966 62.9296 120.767 63.0521 120.601 63.3002C120.539 63.3929 120.481 63.5032 120.429 63.6311C119.313 66.4036 117.8 69.1873 116.093 71.7703C112.385 77.3774 107.765 82.0346 104.322 83.5604C103.948 83.727 103.601 83.9836 103.331 84.2988C103.277 84.36 103.226 84.4244 103.179 84.491C103.144 84.541 103.109 84.5923 103.078 84.6445Z" fill="url(#paint13_linear_1_392)"/>
<path d="M103.079 84.6455L103.078 84.6446C103.109 84.5924 103.144 84.5411 103.179 84.4911C103.144 84.5415 103.11 84.5928 103.079 84.6455ZM116.093 71.7704C117.8 69.1874 119.314 66.4036 120.429 63.6311C120.481 63.5033 120.539 63.393 120.601 63.3002C120.54 63.3925 120.482 63.5019 120.431 63.6289C119.315 66.4018 117.8 69.1869 116.093 71.7704Z" fill="url(#paint14_linear_1_392)"/>
<path d="M99.8376 82.0163L99.9008 81.9576L99.8376 82.0208V82.0163Z" fill="url(#paint15_linear_1_392)"/>
<path d="M99.8376 82.0208V82.0163L99.9008 81.9576L99.8376 82.0208Z" fill="url(#paint16_linear_1_392)"/>
<path d="M110.971 120.237L110.949 120.227L109.14 119.18L110.948 120.225L110.971 120.237Z" fill="#122026"/>
<path d="M110.973 120.238L110.971 120.237L110.948 120.225L109.14 119.18L107.158 118.034C102.246 115.103 99.8375 109.079 99.8375 103.375L99.1126 83.6325C99.0991 83.2453 99.2162 82.8672 99.4233 82.534L103.078 84.6446C102.874 84.9792 102.758 85.3542 102.772 85.7419L103.496 105.484C103.496 111.189 105.905 117.213 110.817 120.144L110.948 120.225L110.973 120.238Z" fill="url(#paint17_linear_1_392)"/>
<path d="M111.017 120.259L110.973 120.238L110.948 120.225L110.817 120.144C105.905 117.213 103.496 111.189 103.496 105.484L102.772 85.7419C102.758 85.3542 102.874 84.9792 103.078 84.6446L103.079 84.6455C102.877 84.9787 102.76 85.3524 102.773 85.7396L103.498 105.482C103.498 111.186 105.907 117.211 110.819 120.141L110.949 120.223L111.017 120.259Z" fill="url(#paint18_linear_1_392)"/>
<path d="M123.948 102.094L118.096 105.472L119.003 94.8868C118.303 94.5167 117.857 93.6059 117.857 92.2989C117.857 89.9681 119.274 87.2604 121.022 86.2515C122.77 85.2421 124.187 86.3136 124.187 88.644C124.187 89.9519 123.741 91.3773 123.041 92.5551L123.948 102.094Z" fill="#33535F"/>
<path d="M123.948 102.094L118.648 99.0334L118.097 105.472L123.948 102.094Z" fill="#273E47"/>
<path d="M121.023 86.2516C119.879 86.9116 118.88 88.3001 118.323 89.8331L123.041 92.557V92.5552C123.741 91.3774 124.187 89.9515 124.187 88.6441C124.187 86.3137 122.77 85.2422 121.023 86.2516Z" fill="#273E47"/>
<path d="M55.3233 161.525C56.8675 160.633 59.3713 160.633 60.9151 161.525C62.4594 162.416 62.4594 163.861 60.9151 164.753C59.3713 165.645 56.8675 165.645 55.3233 164.753C53.779 163.861 53.779 162.416 55.3233 161.525ZM47.8304 163.58V165.34C47.823 167.408 49.1858 169.477 51.9186 171.055C56.0337 173.431 62.078 174.01 67.1399 172.799L71.8403 175.513L75.452 174.696L77.917 176.119L78.0517 179.099L79.3794 179.865L82.7151 180.159L85.1121 181.496V183.175L88.1201 184.912H95.7695L98.5113 183.33V181.553L74.0464 169.205C75.1733 168.009 75.7384 166.684 75.7411 165.359V163.58C75.3732 161.863 73.942 160.977 71.658 159.658C66.2071 156.511 57.3695 156.511 51.9186 159.658C49.4679 161.073 48.0774 161.73 47.8304 163.58Z" fill="url(#paint19_linear_1_392)"/>
<path d="M95.7693 184.912V183.136H88.12V184.912L85.112 183.175V181.496L82.715 180.159V178.382L79.3793 178.089V179.865L78.0516 179.099V177.323L77.9169 174.343V176.119L75.4519 174.696V172.92L71.8402 173.737V175.513L67.1398 172.799C65.4281 173.208 63.6051 173.413 61.7817 173.413C58.2123 173.413 54.6424 172.628 51.9185 171.055C49.1909 169.48 47.8283 167.416 47.8301 165.352C47.8301 165.348 47.8303 165.344 47.8303 165.34V163.58C47.8303 163.58 47.8303 163.58 47.8303 163.579C47.8301 165.642 49.1927 167.705 51.9185 169.279C53.3431 170.101 54.9986 170.708 56.7648 171.1V172.873C58.3784 173.231 60.0848 173.411 61.7911 173.411C63.6114 173.411 65.4312 173.207 67.1398 172.798V171.022C66.7873 171.107 66.4303 171.182 66.0696 171.25C66.4303 171.182 66.7873 171.107 67.1398 171.022L71.8402 173.737L75.4519 172.92L77.9169 174.343L78.0516 177.323L79.3793 178.089L82.715 178.382L85.3155 179.833L85.112 181.399L88.12 183.136H95.7693V184.912Z" fill="url(#paint20_linear_1_392)"/>
<path d="M74.986 167.971L74.0464 167.428C75.1657 166.241 75.7307 164.926 75.741 163.61V165.359C75.7392 166.242 75.4876 167.126 74.986 167.971Z" fill="url(#paint21_linear_1_392)"/>
<path d="M61.7628 162.251C61.5701 161.987 61.2873 161.739 60.915 161.525C60.1428 161.079 59.1312 160.856 58.1191 160.856C57.1074 160.856 56.0953 161.079 55.3232 161.525C54.9508 161.739 54.6681 161.987 54.4754 162.251C53.8689 161.42 54.1512 160.425 55.3232 159.748C56.0953 159.302 57.1074 159.079 58.1191 159.079C59.1312 159.079 60.1428 159.302 60.915 159.748C62.0869 160.425 62.3697 161.42 61.7628 162.251Z" fill="url(#paint22_linear_1_392)"/>
<path d="M55.3232 159.748C56.8675 158.856 59.3712 158.856 60.915 159.748C62.4593 160.64 62.4593 162.085 60.915 162.977C59.3712 163.868 56.8675 163.868 55.3232 162.977C53.7789 162.085 53.7789 160.64 55.3232 159.748ZM51.9186 169.279C56.0337 171.655 62.078 172.234 67.1399 171.022L71.8403 173.737L75.452 172.92L77.917 174.343L78.0516 177.323L79.3793 178.089L82.7151 178.382L85.3156 179.833L85.1121 181.399L88.12 183.135H95.7694L98.5113 181.553L74.0464 167.428C76.9278 164.372 76.1368 160.468 71.6579 157.882C66.207 154.735 57.3695 154.735 51.9186 157.882C46.4675 161.029 46.4677 166.131 51.9186 169.279Z" fill="url(#paint23_linear_1_392)"/>
<path d="M61.7885 170.093C58.328 170.093 55.0972 169.328 52.6921 167.94C50.585 166.723 49.3767 165.134 49.3767 163.58C49.3767 162.027 50.585 160.438 52.6916 159.221C55.0972 157.833 58.328 157.068 61.7885 157.068C65.2485 157.068 68.4793 157.833 70.8844 159.221C72.9915 160.438 74.1995 162.027 74.1995 163.58C74.1995 165.134 72.9915 166.723 70.8849 167.94C68.4793 169.328 65.2485 170.093 61.7885 170.093ZM61.7885 157.687C58.4352 157.687 55.3142 158.422 53.001 159.757C51.0911 160.86 49.9955 162.254 49.9955 163.58C49.9955 164.907 51.0911 166.301 53.0014 167.404C55.3142 168.739 58.4352 169.474 61.7885 169.474C65.1418 169.474 68.2623 168.739 70.5756 167.404C72.4854 166.301 73.5808 164.907 73.5808 163.58C73.5808 162.254 72.4854 160.86 70.5751 159.757C68.2623 158.422 65.1418 157.687 61.7885 157.687Z" fill="#06AB91"/>
<path d="M61.7912 173.411C60.0849 173.411 58.3785 173.231 56.7649 172.873V171.1C58.3754 171.458 60.079 171.637 61.7818 171.637C63.2302 171.637 64.6776 171.508 66.0697 171.25C66.4304 171.182 66.7874 171.107 67.1399 171.023V172.798C65.4313 173.207 63.6115 173.411 61.7912 173.411Z" fill="url(#paint24_linear_1_392)"/>
<path d="M61.7818 171.637C60.079 171.637 58.3754 171.458 56.7649 171.1V171.097C58.3785 171.456 60.084 171.636 61.7903 171.636C63.2356 171.636 64.6808 171.507 66.0697 171.25C64.6776 171.508 63.2302 171.637 61.7818 171.637Z" fill="url(#paint25_linear_1_392)"/>
<path d="M71.8401 175.513V173.737L75.4518 172.92V174.696L71.8401 175.513Z" fill="url(#paint26_linear_1_392)"/>
<path d="M78.0516 179.099L77.917 176.119V174.343L78.0516 177.323V179.099Z" fill="url(#paint27_linear_1_392)"/>
<path d="M82.7149 180.159L79.3792 179.865V178.089L82.7149 178.382V180.159Z" fill="url(#paint28_linear_1_392)"/>
<path d="M88.1199 184.912H95.7693V183.136H88.1199V184.912Z" fill="url(#paint29_linear_1_392)"/>
<path d="M95.7693 184.912V183.136L96.9705 182.442V183.208L97.6337 182.825V182.059L98.5112 181.553V183.33L95.7693 184.912Z" fill="#0EAE97"/>
<path d="M95.7693 183.135L96.97 182.442H96.9705L95.7693 183.135ZM97.6337 182.059V182.051L98.5112 181.553L97.6337 182.059Z" fill="url(#paint30_linear_1_392)"/>
<path d="M97.6336 182.051L96.9705 182.442V183.208L97.6336 182.825V182.051Z" fill="url(#paint31_linear_1_392)"/>
<path d="M96.9704 182.442V182.442L96.97 182.442L73.2079 168.722V167.948L72.5447 168.339L73.2079 167.948L97.6336 182.051L96.9704 182.442V182.442Z" fill="url(#paint32_linear_1_392)"/>
<path d="M96.9712 182.442H96.9702L96.9712 182.441V182.442Z" fill="url(#paint33_linear_1_392)"/>
<path d="M97.6336 182.825L96.9705 182.443V182.442L97.6336 182.051V182.825Z" fill="url(#paint34_linear_1_392)"/>
<path d="M73.2079 168.723L72.5447 168.339L73.2079 168.722V168.723Z" fill="url(#paint35_linear_1_392)"/>
<path d="M73.2079 168.722L72.5447 168.339L73.2079 167.948V168.722Z" fill="url(#paint36_linear_1_392)"/>
<path d="M182.275 115.507C182.591 103.781 181.651 100.971 178.529 98.8222L177.32 105.618C177.32 105.618 178.742 113.625 178.589 116.292C178.455 118.634 178.227 121.565 177.673 123.459C177.575 123.795 177.348 124.077 177.052 124.262C176.256 124.76 175.936 125.27 175.337 125.897C174.869 126.388 174.47 126.51 174.531 126.667C174.61 126.867 174.945 127.192 175.52 127.016C175.808 126.929 176.182 126.702 176.648 126.405C176.648 126.405 176.315 127.382 175.492 128.39C174.378 129.756 174.329 130.596 176.579 130.616C177.99 130.629 179.115 129.758 180.176 126.651C180.482 125.755 180.961 124.342 181.168 123.161C181.707 120.086 182.224 117.395 182.275 115.507Z" fill="#C35363"/>
<path d="M175.902 97.9323C177.392 97.7162 179.418 98.0286 180.726 100.368C182.035 102.709 182.356 106.734 182.504 110.737C182.504 110.737 179.906 112.91 176.788 111.842L175.902 97.9323Z" fill="url(#paint37_linear_1_392)"/>
<path d="M180.394 111.841C180.38 110.219 180.354 108.691 180.312 107.573C180.183 104.171 180.138 101.653 179.812 100.66C179.38 99.3481 177.833 97.9322 176.179 97.9322C176.087 97.9322 175.995 97.9362 175.903 97.9452L175.902 97.9322C176.149 97.8961 176.41 97.875 176.681 97.875C178.043 97.875 179.634 98.4157 180.726 100.368C182.035 102.709 182.356 106.734 182.504 110.737C182.504 110.737 181.676 111.43 180.394 111.841Z" fill="#093B33"/>
<path d="M180.286 162.428C180.523 162.518 180.583 162.969 180.619 163.865C180.646 164.543 180.791 165.726 179.997 165.963C179.202 166.199 178.039 166.079 177.53 165.439C176.894 164.642 176.465 163.94 175.559 162.966C174.772 162.122 173.921 161.333 173.603 160.149C173.316 159.079 173.555 158.615 174.285 158.304C175.289 157.876 176.867 159.274 177.653 159.494C178.331 159.684 180.05 162.339 180.286 162.428Z" fill="#17282F"/>
<path d="M180.286 161.599V162.699C180.286 162.699 179.142 163.578 177.506 162.774C177.458 162.668 177.217 161.2 177.217 161.2L180.286 161.599Z" fill="#C35363"/>
<path d="M171.376 168.77C171.376 168.77 171.692 169.726 171.861 170.563C171.996 171.228 172.19 172.34 171.958 172.841C171.724 173.341 170.815 173.664 169.407 173.653C168.495 173.646 167.073 174.266 166.099 174.809C165.094 175.37 163.002 175.594 161.939 175.469C160.685 175.321 159.387 174.595 159.184 174.076C158.982 173.557 159.251 173.018 162.204 171.759C162.231 171.747 166.311 170.421 167.74 168.844L171.376 168.77Z" fill="#17282F"/>
<path d="M171.375 167.58C171.375 167.58 171.371 168.396 171.375 168.863C171.38 169.33 170.828 170.025 169.402 169.974C168.4 169.938 167.7 169.669 167.74 168.844V167.654L171.375 167.58Z" fill="#C35363"/>
<path d="M181.002 146.997C180.498 143.402 179.703 141.266 179.703 141.266C179.703 141.266 180.096 136.322 180.284 131.634C180.488 126.57 180.273 120.205 180.369 118.942C180.369 118.942 164.031 115.636 163.739 121.49C163.447 127.343 164.384 142.243 164.578 144.814C164.771 147.386 165.215 149.66 165.746 153.827C166.27 157.941 167.74 167.654 167.74 167.654C169.607 168.663 171.376 167.58 171.376 167.58C171.376 167.58 172.525 155.876 172.405 152.909C172.258 149.286 171.28 146.433 171.28 146.433C171.28 146.433 171.589 141.607 171.863 137.409C172.136 133.211 172.426 131.194 172.489 129.368L172.841 129.194C172.841 129.194 173.199 136.436 173.393 139.008C173.586 141.579 173.995 144.044 174.739 148.82C175.384 152.964 177.306 161.73 177.306 161.73C179.173 162.74 180.286 161.598 180.286 161.598C180.286 161.598 181.506 150.592 181.002 146.997Z" fill="#273E47"/>
<path d="M172.49 129.368C172.49 129.368 176.453 127.415 178.437 125.653C178.437 125.653 176.595 128.249 174.177 129.399C174.177 129.399 173.317 138.396 173.322 138.218L172.825 129.355L172.49 129.368Z" fill="#17282F"/>
<path d="M168.962 96.0782L169.929 101.399L174.735 101.048L173.726 95.0161L168.962 96.0782Z" fill="#C35363"/>
<path d="M179.812 100.66C179.336 99.2126 177.5 97.6377 175.664 97.979C172.289 98.6057 169.612 99.2761 167.619 99.9879C165.938 100.588 164.406 102.042 164.266 107.573C164.266 107.573 163.703 120.469 163.693 122.963C167.916 124.634 172.308 124.582 174.735 124.052C179.789 122.948 180.399 120.852 180.399 120.852C180.399 120.852 180.463 111.579 180.312 107.573C180.183 104.171 180.138 101.653 179.812 100.66Z" fill="url(#paint38_linear_1_392)"/>
<path d="M171.309 124.381C169.055 124.381 166.341 124.011 163.693 122.963C163.699 121.411 163.92 115.829 164.086 111.835C164.253 111.664 167.627 108.182 168.583 106.243C169.083 105.23 169.368 103.894 169.368 102.65C169.368 101.455 169.103 100.344 168.511 99.6867C170.388 99.0865 172.769 98.5166 175.664 97.979C175.836 97.947 176.008 97.9322 176.179 97.9322C177.833 97.9322 179.38 99.3481 179.812 100.66C180.138 101.653 180.183 104.171 180.312 107.573C180.394 109.725 180.412 113.396 180.412 116.333C180.412 118.865 180.399 120.852 180.399 120.852C180.399 120.852 179.789 122.948 174.735 124.052C173.83 124.25 172.651 124.381 171.309 124.381Z" fill="url(#paint39_linear_1_392)"/>
<path d="M165.253 89.6058C165.253 89.6058 164.035 91.549 164.182 91.734C164.33 91.9186 165.263 92.0676 165.263 92.0676L165.253 89.6058Z" fill="#AA3B4B"/>
<path d="M168.638 84.2291C166.097 84.8256 165.384 85.9647 165.235 90.0271C165.079 94.2718 165.542 95.5946 166.111 96.1529C166.497 96.5297 168.587 96.5522 169.634 96.238C170.945 95.8445 173.903 94.7212 175.251 92.5574C176.836 90.0113 177.192 86.6018 175.401 85.2466C172.883 83.3394 169.672 83.9864 168.638 84.2291Z" fill="#C35363"/>
<path d="M165.263 85.2858C166.009 86.5631 167.628 87.1736 167.628 87.1736C168.116 87.7288 167.847 89.8944 168.705 90.2379C168.705 90.2379 169.073 88.6621 170.399 88.8291C171.733 88.9975 171.95 90.6881 171.135 91.7362C170.321 92.7848 169.531 92.4075 169.531 92.4075C169.531 92.4075 169.623 94.6465 170.643 95.8923C170.643 95.8923 171.781 96.2322 173.848 95.7428C175.118 95.4421 176.888 93.8055 177.609 92.0987C179.134 88.4878 179.173 85.2687 176.87 84.3566C176.586 82.7146 175.272 82.0055 173.786 81.6993C170.587 81.0397 168.525 83.036 166.063 82.8627C164.653 82.7637 164.389 83.7897 165.263 85.2858Z" fill="#17282F"/>
<path d="M176.921 84.9067L178.429 83.9716C178.171 83.5552 177.624 83.4268 177.208 83.6853C176.791 83.9437 176.663 84.4903 176.921 84.9067Z" fill="#17282F"/>
<path d="M147.294 109.567C148.085 109.918 157.398 116.801 158.849 115.999C160.301 115.197 167.751 106.495 167.751 106.495C169.914 102.91 167.751 99.9654 167.751 99.9654C167.751 99.9654 165.362 100.407 164.113 102.297C162.865 104.186 157.465 110.957 157.465 110.957C156.132 110.29 154.803 109.613 153.479 108.927C152.388 108.363 151.294 107.798 150.226 107.191C149.959 107.039 149.607 106.891 149.386 106.673C148.86 106.152 148.95 104.892 148.96 104.207C148.964 103.886 148.969 103.565 149.006 103.247C149.052 102.855 149.126 101.897 148.422 102.201C148.286 102.26 148.175 102.366 148.085 102.484C147.975 102.628 147.889 102.791 147.833 102.964C147.7 103.379 147.743 103.832 147.621 104.25C147.603 104.311 147.58 104.373 147.534 104.416C147.476 104.471 147.392 104.487 147.312 104.485C146.285 104.454 145.314 103.015 144.843 102.252C144.633 101.912 144.426 101.534 144.064 101.364C143.502 101.102 142.828 101.478 142.467 101.981C142.005 102.624 141.867 103.457 141.958 104.243C142.084 105.331 142.502 106.337 143.296 107.078C144.501 108.201 145.808 108.906 147.294 109.567Z" fill="#C35363"/>
<path d="M168.51 99.6845C167.483 99.803 165.776 99.8808 164.104 101.774C162.149 103.988 159.576 107.602 159.576 107.602C159.576 107.602 160.274 111.106 164.079 111.842C164.079 111.842 167.603 108.232 168.583 106.243C169.564 104.256 169.72 101.026 168.51 99.6845Z" fill="url(#paint40_linear_1_392)"/>
<path d="M164.079 111.842C163.78 111.784 163.499 111.709 163.237 111.62C160.951 110.842 160.039 108.993 159.722 108.101C159.614 107.795 159.576 107.602 159.576 107.602C159.576 107.602 162.149 103.988 164.104 101.774C165.776 99.8808 167.483 99.803 168.51 99.6845C169.103 100.342 169.368 101.454 169.368 102.65C169.369 103.894 169.083 105.23 168.583 106.243C167.628 108.182 164.253 111.664 164.086 111.835C164.082 111.84 164.079 111.842 164.079 111.842Z" fill="#093B33"/>
</g>
<defs>
<filter id="filter0_d_1_392" x="0.5" y="0" width="217" height="211.663" filterUnits="userSpaceOnUse" color-interpolation-filters="sRGB">
<feFlood flood-opacity="0" result="BackgroundImageFix"/>
<feColorMatrix in="SourceAlpha" type="matrix" values="0 0 0 0 0 0 0 0 0 0 0 0 0 0 0 0 0 0 127 0" result="hardAlpha"/>
<feOffset dy="4.5"/>
<feGaussianBlur stdDeviation="2.25"/>
<feColorMatrix type="matrix" values="0 0 0 0 0 0 0 0 0 0 0 0 0 0 0 0 0 0 0.25 0"/>
<feBlend mode="normal" in2="BackgroundImageFix" result="effect1_dropShadow_1_392"/>
<feBlend mode="normal" in="SourceGraphic" in2="effect1_dropShadow_1_392" result="shape"/>
</filter>
<linearGradient id="paint0_linear_1_392" x1="20.0524" y1="116.046" x2="20.0524" y2="90.7177" gradientUnits="userSpaceOnUse">
<stop stop-color="#B353FF"/>
<stop offset="1" stop-color="#7ED1FF"/>
</linearGradient>
<linearGradient id="paint1_linear_1_392" x1="69.7545" y1="108.658" x2="69.7545" y2="7.61575" gradientUnits="userSpaceOnUse">
<stop stop-color="#B353FF"/>
<stop offset="1" stop-color="#7ED1FF"/>
</linearGradient>
<linearGradient id="paint2_linear_1_392" x1="61.1364" y1="75.1249" x2="61.1364" y2="73.0043" gradientUnits="userSpaceOnUse">
<stop stop-color="#B353FF"/>
<stop offset="1" stop-color="#7ED1FF"/>
</linearGradient>
<linearGradient id="paint3_linear_1_392" x1="63.8527" y1="73.5566" x2="63.8527" y2="71.436" gradientUnits="userSpaceOnUse">
<stop stop-color="#B353FF"/>
<stop offset="1" stop-color="#7ED1FF"/>
</linearGradient>
<linearGradient id="paint4_linear_1_392" x1="66.569" y1="71.9884" x2="66.569" y2="69.8678" gradientUnits="userSpaceOnUse">
<stop stop-color="#B353FF"/>
<stop offset="1" stop-color="#7ED1FF"/>
</linearGradient>
<linearGradient id="paint5_linear_1_392" x1="69.2849" y1="70.4203" x2="69.2849" y2="68.2997" gradientUnits="userSpaceOnUse">
<stop stop-color="#B353FF"/>
<stop offset="1" stop-color="#7ED1FF"/>
</linearGradient>
<linearGradient id="paint6_linear_1_392" x1="72.0014" y1="68.8522" x2="72.0014" y2="66.7316" gradientUnits="userSpaceOnUse">
<stop stop-color="#B353FF"/>
<stop offset="1" stop-color="#7ED1FF"/>
</linearGradient>
<linearGradient id="paint7_linear_1_392" x1="74.7175" y1="67.2841" x2="74.7175" y2="65.1634" gradientUnits="userSpaceOnUse">
<stop stop-color="#B353FF"/>
<stop offset="1" stop-color="#7ED1FF"/>
</linearGradient>
<linearGradient id="paint8_linear_1_392" x1="77.4335" y1="65.7157" x2="77.4335" y2="63.5953" gradientUnits="userSpaceOnUse">
<stop stop-color="#B353FF"/>
<stop offset="1" stop-color="#7ED1FF"/>
</linearGradient>
<linearGradient id="paint9_linear_1_392" x1="80.1498" y1="64.1475" x2="80.1498" y2="62.0268" gradientUnits="userSpaceOnUse">
<stop stop-color="#B353FF"/>
<stop offset="1" stop-color="#7ED1FF"/>
</linearGradient>
<linearGradient id="paint10_linear_1_392" x1="119.193" y1="121.967" x2="119.193" y2="60.828" gradientUnits="userSpaceOnUse">
<stop stop-color="#B353FF"/>
<stop offset="1" stop-color="#7ED1FF"/>
</linearGradient>
<linearGradient id="paint11_linear_1_392" x1="121.022" y1="121.967" x2="121.022" y2="62.9322" gradientUnits="userSpaceOnUse">
<stop stop-color="#B353FF"/>
<stop offset="1" stop-color="#7ED1FF"/>
</linearGradient>
<linearGradient id="paint12_linear_1_392" x1="130.821" y1="66.78" x2="130.821" y2="61.5993" gradientUnits="userSpaceOnUse">
<stop stop-color="#B353FF"/>
<stop offset="1" stop-color="#7ED1FF"/>
</linearGradient>
<linearGradient id="paint13_linear_1_392" x1="110.441" y1="84.6445" x2="110.441" y2="60.8279" gradientUnits="userSpaceOnUse">
<stop stop-color="#B353FF"/>
<stop offset="1" stop-color="#7ED1FF"/>
</linearGradient>
<linearGradient id="paint14_linear_1_392" x1="111.84" y1="84.6455" x2="111.84" y2="63.3002" gradientUnits="userSpaceOnUse">
<stop stop-color="#B353FF"/>
<stop offset="1" stop-color="#7ED1FF"/>
</linearGradient>
<linearGradient id="paint15_linear_1_392" x1="99.8692" y1="82.0208" x2="99.8692" y2="81.9576" gradientUnits="userSpaceOnUse">
<stop stop-color="#B353FF"/>
<stop offset="1" stop-color="#7ED1FF"/>
</linearGradient>
<linearGradient id="paint16_linear_1_392" x1="99.8692" y1="82.0208" x2="99.8692" y2="81.9576" gradientUnits="userSpaceOnUse">
<stop stop-color="#B353FF"/>
<stop offset="1" stop-color="#7ED1FF"/>
</linearGradient>
<linearGradient id="paint17_linear_1_392" x1="105.042" y1="120.238" x2="105.042" y2="82.534" gradientUnits="userSpaceOnUse">
<stop stop-color="#B353FF"/>
<stop offset="1" stop-color="#7ED1FF"/>
</linearGradient>
<linearGradient id="paint18_linear_1_392" x1="106.894" y1="120.259" x2="106.894" y2="84.6446" gradientUnits="userSpaceOnUse">
<stop stop-color="#B353FF"/>
<stop offset="1" stop-color="#7ED1FF"/>
</linearGradient>
<linearGradient id="paint19_linear_1_392" x1="73.1708" y1="184.912" x2="73.1708" y2="157.298" gradientUnits="userSpaceOnUse">
<stop stop-color="#B353FF"/>
<stop offset="1" stop-color="#7ED1FF"/>
</linearGradient>
<linearGradient id="paint20_linear_1_392" x1="71.7997" y1="184.912" x2="71.7997" y2="163.579" gradientUnits="userSpaceOnUse">
<stop stop-color="#B353FF"/>
<stop offset="1" stop-color="#7ED1FF"/>
</linearGradient>
<linearGradient id="paint21_linear_1_392" x1="74.8937" y1="167.971" x2="74.8937" y2="163.61" gradientUnits="userSpaceOnUse">
<stop stop-color="#B353FF"/>
<stop offset="1" stop-color="#7ED1FF"/>
</linearGradient>
<linearGradient id="paint22_linear_1_392" x1="58.1192" y1="162.251" x2="58.1192" y2="159.079" gradientUnits="userSpaceOnUse">
<stop stop-color="#B353FF"/>
<stop offset="1" stop-color="#7ED1FF"/>
</linearGradient>
<linearGradient id="paint23_linear_1_392" x1="73.1708" y1="183.135" x2="73.1708" y2="155.522" gradientUnits="userSpaceOnUse">
<stop stop-color="#B353FF"/>
<stop offset="1" stop-color="#7ED1FF"/>
</linearGradient>
<linearGradient id="paint24_linear_1_392" x1="61.9524" y1="173.411" x2="61.9524" y2="171.023" gradientUnits="userSpaceOnUse">
<stop stop-color="#B353FF"/>
<stop offset="1" stop-color="#7ED1FF"/>
</linearGradient>
<linearGradient id="paint25_linear_1_392" x1="61.4173" y1="171.637" x2="61.4173" y2="171.097" gradientUnits="userSpaceOnUse">
<stop stop-color="#B353FF"/>
<stop offset="1" stop-color="#7ED1FF"/>
</linearGradient>
<linearGradient id="paint26_linear_1_392" x1="73.646" y1="175.513" x2="73.646" y2="172.92" gradientUnits="userSpaceOnUse">
<stop stop-color="#B353FF"/>
<stop offset="1" stop-color="#7ED1FF"/>
</linearGradient>
<linearGradient id="paint27_linear_1_392" x1="77.9843" y1="179.099" x2="77.9843" y2="174.343" gradientUnits="userSpaceOnUse">
<stop stop-color="#B353FF"/>
<stop offset="1" stop-color="#7ED1FF"/>
</linearGradient>
<linearGradient id="paint28_linear_1_392" x1="81.047" y1="180.159" x2="81.047" y2="178.089" gradientUnits="userSpaceOnUse">
<stop stop-color="#B353FF"/>
<stop offset="1" stop-color="#7ED1FF"/>
</linearGradient>
<linearGradient id="paint29_linear_1_392" x1="91.9446" y1="184.912" x2="91.9446" y2="183.136" gradientUnits="userSpaceOnUse">
<stop stop-color="#B353FF"/>
<stop offset="1" stop-color="#7ED1FF"/>
</linearGradient>
<linearGradient id="paint30_linear_1_392" x1="97.1402" y1="183.135" x2="97.1402" y2="181.553" gradientUnits="userSpaceOnUse">
<stop stop-color="#B353FF"/>
<stop offset="1" stop-color="#7ED1FF"/>
</linearGradient>
<linearGradient id="paint31_linear_1_392" x1="97.3021" y1="183.208" x2="97.3021" y2="182.051" gradientUnits="userSpaceOnUse">
<stop stop-color="#B353FF"/>
<stop offset="1" stop-color="#7ED1FF"/>
</linearGradient>
<linearGradient id="paint32_linear_1_392" x1="85.0891" y1="182.442" x2="85.0891" y2="167.948" gradientUnits="userSpaceOnUse">
<stop stop-color="#B353FF"/>
<stop offset="1" stop-color="#7ED1FF"/>
</linearGradient>
<linearGradient id="paint33_linear_1_392" x1="96.9707" y1="182.442" x2="96.9707" y2="182.441" gradientUnits="userSpaceOnUse">
<stop stop-color="#B353FF"/>
<stop offset="1" stop-color="#7ED1FF"/>
</linearGradient>
<linearGradient id="paint34_linear_1_392" x1="97.3021" y1="182.825" x2="97.3021" y2="182.051" gradientUnits="userSpaceOnUse">
<stop stop-color="#B353FF"/>
<stop offset="1" stop-color="#7ED1FF"/>
</linearGradient>
<linearGradient id="paint35_linear_1_392" x1="72.8763" y1="168.723" x2="72.8763" y2="168.339" gradientUnits="userSpaceOnUse">
<stop stop-color="#B353FF"/>
<stop offset="1" stop-color="#7ED1FF"/>
</linearGradient>
<linearGradient id="paint36_linear_1_392" x1="72.8763" y1="168.722" x2="72.8763" y2="167.948" gradientUnits="userSpaceOnUse">
<stop stop-color="#B353FF"/>
<stop offset="1" stop-color="#7ED1FF"/>
</linearGradient>
<linearGradient id="paint37_linear_1_392" x1="179.203" y1="112.137" x2="179.203" y2="97.8752" gradientUnits="userSpaceOnUse">
<stop stop-color="#B353FF"/>
<stop offset="1" stop-color="#7ED1FF"/>
</linearGradient>
<linearGradient id="paint38_linear_1_392" x1="172.053" y1="124.381" x2="172.053" y2="97.9318" gradientUnits="userSpaceOnUse">
<stop stop-color="#B353FF"/>
<stop offset="1" stop-color="#7ED1FF"/>
</linearGradient>
<linearGradient id="paint39_linear_1_392" x1="172.053" y1="124.381" x2="172.053" y2="97.9322" gradientUnits="userSpaceOnUse">
<stop stop-color="#B353FF"/>
<stop offset="1" stop-color="#7ED1FF"/>
</linearGradient>
<linearGradient id="paint40_linear_1_392" x1="164.472" y1="111.842" x2="164.472" y2="99.6845" gradientUnits="userSpaceOnUse">
<stop stop-color="#B353FF"/>
<stop offset="1" stop-color="#7ED1FF"/>
</linearGradient>
</defs>
</svg>
