<svg width="23" height="23" viewBox="0 0 23 23" fill="none" xmlns="http://www.w3.org/2000/svg">
<path d="M12.6362 22.3856H9.67325C9.19275 22.3856 8.80178 21.9947 8.80178 21.5142V20.2133C7.98189 19.999 7.19945 19.6746 6.46789 19.2455L5.54724 20.1661C5.20734 20.5059 4.6545 20.5059 4.31477 20.1661L2.21951 18.0709C1.87977 17.7311 1.87977 17.1783 2.21951 16.8386L3.14016 15.9177C2.71107 15.1862 2.38665 14.4037 2.17236 13.5839H0.871464C0.390967 13.5839 0 13.1929 0 12.7124V9.74942C0 9.26892 0.390967 8.87795 0.871464 8.87795H2.16947C2.38308 8.0567 2.70715 7.2729 3.13625 6.53998L2.21951 5.62324C1.87977 5.28351 1.87977 4.73067 2.21951 4.39094L4.31477 2.29568C4.6545 1.95595 5.20734 1.95595 5.54724 2.29568L6.46075 3.20936C7.19434 2.77822 7.97917 2.45244 8.80178 2.23747V0.947636C8.80178 0.467139 9.19275 0.0761719 9.67325 0.0761719H12.6362C13.1167 0.0761719 13.5077 0.467139 13.5077 0.947636V2.23458C14.3315 2.44887 15.1179 2.77431 15.8526 3.20527L16.7624 2.29568C17.1021 1.95595 17.655 1.95595 17.9947 2.29568L20.09 4.39094C20.4297 4.73067 20.4297 5.28351 20.09 5.62341L19.1804 6.533C19.6113 7.26779 19.9368 8.05415 20.1511 8.87795H21.438C21.9185 8.87795 22.3095 9.26892 22.3095 9.74942V12.7124C22.3095 13.1929 21.9185 13.5839 21.438 13.5839H20.1482C19.9332 14.4065 19.6073 15.1913 19.1763 15.9249L20.0898 16.8386C20.4295 17.1783 20.4295 17.7311 20.0898 18.0709L17.9947 20.1661C17.655 20.5059 17.1021 20.5059 16.7622 20.1661L15.8457 19.2494C15.1126 19.6785 14.3288 20.0026 13.5077 20.2162V21.5142C13.5077 21.9947 13.1167 22.3856 12.6362 22.3856ZM6.40253 18.2588C6.48355 18.2588 6.56474 18.2813 6.63691 18.3272C7.46599 18.8566 8.37269 19.2325 9.33164 19.4448C9.53129 19.489 9.67325 19.6659 9.67325 19.8703V21.5142H12.6362V19.8727C12.6362 19.6681 12.7785 19.4911 12.9783 19.4472C13.9387 19.2358 14.8467 18.8603 15.6772 18.3313C15.8494 18.2215 16.0749 18.2462 16.2194 18.3907L17.3786 19.5498L19.4736 17.4547L18.3171 16.2982C18.1724 16.1535 18.1479 15.9276 18.2582 15.7552C18.7894 14.9246 19.1669 14.0157 19.3799 13.054C19.4239 12.8543 19.601 12.7124 19.8052 12.7124H21.438V9.74942H19.8076C19.603 9.74942 19.426 9.60712 19.3821 9.4073C19.1702 8.44427 18.7933 7.53399 18.2621 6.70202C18.1521 6.5296 18.1768 6.30407 18.3213 6.1594L19.4736 5.00709L17.3786 2.912L16.2262 4.06431C16.0817 4.20882 15.856 4.2335 15.6836 4.12354C14.8516 3.59232 13.9414 3.21565 12.9783 3.00357C12.7785 2.95966 12.6362 2.78265 12.6362 2.57806V0.947636H9.67325V2.58044C9.67325 2.78486 9.53129 2.9617 9.33181 3.00596C8.36997 3.21889 7.46106 3.59624 6.63044 4.12746C6.45819 4.23775 6.23216 4.21324 6.08765 4.06856L4.93092 2.912L2.83583 5.00709L3.99495 6.16638C4.13945 6.31071 4.16413 6.53624 4.05435 6.70849C3.52534 7.53893 3.14986 8.44699 2.93847 9.4073C2.89455 9.60712 2.71754 9.74942 2.51295 9.74942H0.871464V12.7124H2.51533C2.71975 12.7124 2.8966 12.8545 2.94085 13.054C3.1531 14.0131 3.52926 14.9196 4.05843 15.7487C4.16839 15.9212 4.14388 16.1468 3.9992 16.2914L2.83583 17.4547L4.93092 19.55L6.09429 18.3864C6.17854 18.3024 6.29003 18.2588 6.40253 18.2588Z" fill="black" fill-opacity="0.5"/>
<path d="M11.1546 17.5896C9.52559 17.5896 7.89653 16.9694 6.65623 15.7293C4.17579 13.2488 4.17579 9.21287 6.65623 6.73243C7.65671 5.73212 8.92527 5.10644 10.3247 4.92329C11.6797 4.74594 13.0787 5.01453 14.2643 5.67936C14.4742 5.79697 14.5489 6.0625 14.4313 6.27236C14.3135 6.4824 14.048 6.55712 13.8381 6.43934C11.7044 5.24277 9.00441 5.61672 7.27255 7.34876C5.13185 9.48929 5.13185 12.9724 7.27255 15.1131C8.34282 16.1832 9.7489 16.7184 11.1546 16.7185C12.5607 16.7187 13.9665 16.1836 15.0369 15.1131C16.7106 13.4395 17.125 10.8933 16.068 8.77748C15.9605 8.56217 16.0478 8.30039 16.2631 8.19282C16.4782 8.08524 16.74 8.17273 16.8476 8.38804C18.0724 10.8397 17.5924 13.7901 15.6531 15.7293C14.4128 16.9694 12.7837 17.5896 11.1546 17.5896Z" fill="black" fill-opacity="0.5"/>
<path d="M15.4401 7.57129C15.3251 7.57129 15.2131 7.525 15.1315 7.44347C15.0505 7.36245 15.0044 7.25045 15.0044 7.13556C15.0044 7.02084 15.0505 6.9085 15.1315 6.82748C15.2126 6.7463 15.3251 6.69983 15.4401 6.69983C15.5547 6.69983 15.667 6.7463 15.7482 6.82748C15.8292 6.9085 15.8759 7.02084 15.8759 7.13556C15.8759 7.25045 15.8292 7.36245 15.7482 7.44347C15.6667 7.525 15.5547 7.57129 15.4401 7.57129Z" fill="black" fill-opacity="0.5"/>
<path d="M10.5399 14.4408C10.4243 14.4408 10.3135 14.3948 10.2318 14.3131L7.47629 11.5575C7.30608 11.3874 7.30608 11.1115 7.47629 10.9413L9.03914 9.37828C9.12084 9.29658 9.23164 9.2508 9.34721 9.2508C9.46278 9.2508 9.57376 9.29658 9.65546 9.37828L10.5399 10.2629L12.6543 8.14853C12.8244 7.97832 13.1003 7.97832 13.2705 8.14853L14.8335 9.71155C15.0036 9.88159 15.0036 10.1575 14.8335 10.3277L10.8481 14.3131C10.7662 14.3948 10.6554 14.4408 10.5399 14.4408ZM8.40052 11.2494L10.5399 13.3887L13.9091 10.0196L12.9624 9.07293L10.8481 11.1872C10.7664 11.2689 10.6554 11.3149 10.5399 11.3149C10.4243 11.3149 10.3135 11.2689 10.2318 11.1872L9.34721 10.3027L8.40052 11.2494Z" fill="black" fill-opacity="0.5"/>
</svg>
