<svg width="21" height="24" viewBox="0 0 21 24" fill="none" xmlns="http://www.w3.org/2000/svg">
<path d="M10.5032 9.93616C7.42756 9.93616 4.93415 7.71177 4.93415 4.96798C4.93415 2.22418 7.42756 0 10.5032 0C13.5788 0 16.072 2.22439 16.072 4.96818C16.0686 7.71054 13.5772 9.93308 10.5032 9.93616ZM10.5032 1.05238C8.07891 1.05238 6.11381 2.80546 6.11381 4.96818C6.11381 7.1307 8.07891 8.88378 10.5032 8.88378C12.9273 8.88378 14.8924 7.1307 14.8924 4.96818C14.8896 2.80649 12.9261 1.05485 10.5032 1.05238Z" fill="#00160A" fill-opacity="0.5"/>
<path d="M10.3579 11.6862C16.0794 11.6841 20.7181 15.8225 20.7158 20.9266V23.0471C20.7158 23.3378 20.4518 23.5733 20.126 23.5733H0.589727C0.263939 23.5733 -0.000102997 23.3378 -0.000102997 23.0471V20.9266C-0.00263786 15.8225 4.63628 11.6841 10.3579 11.6862ZM1.17956 22.521H19.5362V20.9266C19.5445 17.9963 17.7969 15.2856 14.9537 13.8183C12.1105 12.3511 8.60519 12.3511 5.7618 13.8183C2.91863 15.2856 1.17103 17.9963 1.17956 20.9266V22.521Z" fill="#00160A" fill-opacity="0.5"/>
</svg>
