<svg width="25" height="22" viewBox="0 0 25 22" fill="none" xmlns="http://www.w3.org/2000/svg">
<path d="M21.1892 22H8.55616C7.73017 21.9993 6.93821 21.6709 6.35415 21.0868C5.77009 20.5028 5.44168 19.7108 5.44104 18.8848V4.37586H0.347204C0.25512 4.37586 0.166807 4.33928 0.101694 4.27416C0.0365803 4.20905 0 4.12074 0 4.02865V3.06724C0.00859566 2.25929 0.335587 1.48734 0.909962 0.919041C1.48434 0.350743 2.25972 0.0319824 3.06772 0.0319824C3.87573 0.0319824 4.65111 0.350743 5.22549 0.919041C5.79986 1.48734 6.12685 2.25929 6.13545 3.06724V18.8848C6.13545 19.5268 6.39049 20.1426 6.84446 20.5965C7.29843 21.0505 7.91414 21.3055 8.55616 21.3055C9.19817 21.3055 9.81389 21.0505 10.2679 20.5965C10.7218 20.1426 10.9769 19.5268 10.9769 18.8848C10.9769 18.7927 11.0134 18.7044 11.0786 18.6393C11.1437 18.5742 11.232 18.5376 11.3241 18.5376H23.9571C24.0492 18.5376 24.1375 18.5742 24.2026 18.6393C24.2677 18.7044 24.3043 18.7927 24.3043 18.8848C24.3034 19.7107 23.9749 20.5025 23.3909 21.0865C22.8069 21.6705 22.0151 21.999 21.1892 22ZM10.5147 21.3055H21.1892C21.7708 21.3048 22.3328 21.0949 22.7726 20.7143C23.2124 20.3336 23.5007 19.8076 23.5849 19.232H11.6522C11.5604 20.0459 11.1517 20.7908 10.5147 21.3055ZM0.694409 3.68145H5.44104V3.06724C5.43349 2.44277 5.18012 1.84644 4.73585 1.40752C4.29159 0.9686 3.69224 0.722461 3.06772 0.722461C2.44321 0.722461 1.84386 0.9686 1.39959 1.40752C0.955332 1.84644 0.701962 2.44277 0.694409 3.06724V3.68145Z" fill="black" fill-opacity="0.5"/>
<path d="M20.5164 5.11779C20.4243 5.11779 20.336 5.08121 20.2709 5.0161C20.2058 4.95098 20.1692 4.86267 20.1692 4.77059V3.12484C20.1685 2.48047 19.9122 1.86271 19.4565 1.40708C19.0009 0.951442 18.3831 0.695144 17.7388 0.694409H3.06937C2.97729 0.694409 2.88898 0.657828 2.82386 0.592715C2.75875 0.527601 2.72217 0.439289 2.72217 0.347204C2.72217 0.25512 2.75875 0.166807 2.82386 0.101694C2.88898 0.0365803 2.97729 0 3.06937 0H17.7388C18.5672 0.000918999 19.3615 0.330437 19.9473 0.916259C20.5332 1.50208 20.8627 2.29636 20.8636 3.12484V4.77059C20.8636 4.86267 20.827 4.95098 20.7619 5.0161C20.6968 5.08121 20.6085 5.11779 20.5164 5.11779Z" fill="black" fill-opacity="0.5"/>
<path d="M20.5164 12.0237C20.4243 12.0237 20.336 11.9871 20.2709 11.922C20.2058 11.8569 20.1692 11.7686 20.1692 11.6765V10.6523C20.1692 10.5602 20.2058 10.4719 20.2709 10.4067C20.336 10.3416 20.4243 10.3051 20.5164 10.3051C20.6085 10.3051 20.6968 10.3416 20.7619 10.4067C20.827 10.4719 20.8636 10.5602 20.8636 10.6523V11.6765C20.8636 11.7686 20.827 11.8569 20.7619 11.922C20.6968 11.9871 20.6085 12.0237 20.5164 12.0237Z" fill="black" fill-opacity="0.5"/>
<path d="M20.5164 19.2317C20.4243 19.2317 20.336 19.1951 20.2709 19.13C20.2058 19.0649 20.1692 18.9766 20.1692 18.8845V14.1C20.1692 14.0079 20.2058 13.9196 20.2709 13.8545C20.336 13.7894 20.4243 13.7528 20.5164 13.7528C20.6085 13.7528 20.6968 13.7894 20.7619 13.8545C20.827 13.9196 20.8636 14.0079 20.8636 14.1V18.8845C20.8636 18.9766 20.827 19.0649 20.7619 19.13C20.6968 19.1951 20.6085 19.2317 20.5164 19.2317Z" fill="black" fill-opacity="0.5"/>
<path d="M20.5164 8.56902C20.4243 8.56902 20.336 8.53244 20.2709 8.46732C20.2058 8.40221 20.1692 8.3139 20.1692 8.22181V7.2045C20.1692 7.11242 20.2058 7.02411 20.2709 6.95899C20.336 6.89388 20.4243 6.8573 20.5164 6.8573C20.6085 6.8573 20.6968 6.89388 20.7619 6.95899C20.827 7.02411 20.8636 7.11242 20.8636 7.2045V8.22181C20.8636 8.3139 20.827 8.40221 20.7619 8.46732C20.6968 8.53244 20.6085 8.56902 20.5164 8.56902Z" fill="black" fill-opacity="0.5"/>
<path d="M18.0548 5.44416H8.33304C8.24096 5.44416 8.15265 5.40758 8.08753 5.34247C8.02242 5.27736 7.98584 5.18904 7.98584 5.09696C7.98584 5.00488 8.02242 4.91656 8.08753 4.85145C8.15265 4.78634 8.24096 4.74976 8.33304 4.74976H18.0548C18.1468 4.74976 18.2352 4.78634 18.3003 4.85145C18.3654 4.91656 18.402 5.00488 18.402 5.09696C18.402 5.18904 18.3654 5.27736 18.3003 5.34247C18.2352 5.40758 18.1468 5.44416 18.0548 5.44416Z" fill="black" fill-opacity="0.5"/>
<path d="M18.0548 8.68464H8.33304C8.24096 8.68464 8.15265 8.64806 8.08753 8.58295C8.02242 8.51784 7.98584 8.42952 7.98584 8.33744C7.98584 8.24535 8.02242 8.15704 8.08753 8.09193C8.15265 8.02681 8.24096 7.99023 8.33304 7.99023H18.0548C18.1468 7.99023 18.2352 8.02681 18.3003 8.09193C18.3654 8.15704 18.402 8.24535 18.402 8.33744C18.402 8.42952 18.3654 8.51784 18.3003 8.58295C18.2352 8.64806 18.1468 8.68464 18.0548 8.68464Z" fill="black" fill-opacity="0.5"/>
<path d="M18.0548 11.9254H8.33304C8.24096 11.9254 8.15265 11.8888 8.08753 11.8237C8.02242 11.7586 7.98584 11.6702 7.98584 11.5782C7.98584 11.4861 8.02242 11.3978 8.08753 11.3327C8.15265 11.2675 8.24096 11.231 8.33304 11.231H18.0548C18.1468 11.231 18.2352 11.2675 18.3003 11.3327C18.3654 11.3978 18.402 11.4861 18.402 11.5782C18.402 11.6702 18.3654 11.7586 18.3003 11.8237C18.2352 11.8888 18.1468 11.9254 18.0548 11.9254Z" fill="black" fill-opacity="0.5"/>
<path d="M18.0548 15.1658H8.33304C8.24096 15.1658 8.15265 15.1293 8.08753 15.0642C8.02242 14.999 7.98584 14.9107 7.98584 14.8186C7.98584 14.7266 8.02242 14.6382 8.08753 14.5731C8.15265 14.508 8.24096 14.4714 8.33304 14.4714H18.0548C18.1468 14.4714 18.2352 14.508 18.3003 14.5731C18.3654 14.6382 18.402 14.7266 18.402 14.8186C18.402 14.9107 18.3654 14.999 18.3003 15.0642C18.2352 15.1293 18.1468 15.1658 18.0548 15.1658Z" fill="black" fill-opacity="0.5"/>
</svg>
