<svg width="24" height="24" viewBox="0 0 24 24" fill="none" xmlns="http://www.w3.org/2000/svg">
<path d="M15.0189 15.8158C14.1686 15.8149 13.4794 15.1258 13.4785 14.2754C13.4786 14.1733 13.438 14.0753 13.3658 14.003C13.2935 13.9308 13.1956 13.8903 13.0934 13.8903H3.85091C3.74878 13.8902 3.6508 13.9308 3.57855 14.003C3.50634 14.0752 3.46577 14.1732 3.46577 14.2754C3.46492 15.1258 2.77579 15.8149 1.92542 15.8158C1.82329 15.8157 1.72531 15.8563 1.65306 15.9286C1.58085 16.0008 1.54028 16.0988 1.54028 16.2009V20.052C1.54024 20.1541 1.58081 20.2521 1.65306 20.3243C1.72527 20.3965 1.82324 20.4371 1.92542 20.4371C2.77579 20.438 3.46492 21.1271 3.46582 21.9775C3.46577 22.0796 3.50634 22.1776 3.5786 22.2498C3.65085 22.3221 3.74878 22.3626 3.85095 22.3626H13.0934C13.1956 22.3627 13.2935 22.3221 13.3658 22.2498C13.4381 22.1776 13.4786 22.0797 13.4786 21.9775C13.4795 21.1271 14.1686 20.438 15.019 20.4371C15.1211 20.4371 15.2191 20.3966 15.2913 20.3243C15.3635 20.2521 15.4041 20.1541 15.4041 20.052V16.2009C15.4042 16.0988 15.3636 16.0008 15.2913 15.9286C15.219 15.8563 15.1211 15.8157 15.0189 15.8158ZM14.6338 19.6988C13.6649 19.8644 12.906 20.6234 12.7405 21.5924H4.20386C4.03837 20.6234 3.27943 19.8644 2.31051 19.6988V16.5541C3.27943 16.3885 4.03837 15.6295 4.20386 14.6605H12.7404C12.9059 15.6295 13.6649 16.3885 14.6338 16.5541V19.6988H14.6338Z" fill="black" fill-opacity="0.5"/>
<path d="M9.24251 17.1637C9.24251 17.3764 9.41495 17.5488 9.6276 17.5488C9.84029 17.5488 10.0127 17.3764 10.0127 17.1637C9.97825 16.5138 9.49871 15.9742 8.85737 15.8637V15.4307C8.85737 15.218 8.68498 15.0457 8.47229 15.0457C8.25959 15.0457 8.0872 15.218 8.0872 15.4307V15.8637C7.42831 15.9417 6.93188 16.5002 6.93188 17.1637C6.93188 17.8272 7.42831 18.3858 8.0872 18.4637V19.5841C7.87288 19.5089 7.72228 19.3154 7.70211 19.0892C7.70211 18.8766 7.52971 18.7042 7.31702 18.7042C7.10432 18.7042 6.93193 18.8766 6.93193 19.0892C6.96636 19.7392 7.44591 20.2787 8.08724 20.3892V20.8222C8.08724 21.0349 8.25964 21.2073 8.47233 21.2073C8.68502 21.2073 8.85742 21.0349 8.85742 20.8222V20.3892C9.51631 20.3113 10.0127 19.7527 10.0127 19.0892C10.0127 18.4258 9.51635 17.8672 8.85742 17.7892V16.6689C9.07174 16.744 9.22229 16.9375 9.24251 17.1637ZM8.0872 17.6586C7.87288 17.5834 7.72228 17.3899 7.70211 17.1637C7.72228 16.9375 7.87288 16.744 8.0872 16.6689V17.6586ZM9.24251 19.0892C9.22229 19.3154 9.07174 19.5089 8.85742 19.584V18.5943C9.07174 18.6695 9.22229 18.863 9.24251 19.0892Z" fill="black" fill-opacity="0.5"/>
<path d="M21.9509 0.796753H7.31696C6.67919 0.79743 6.16232 1.3143 6.16165 1.95206V12.3499H1.15531C0.517544 12.3505 0.00067694 12.8674 0 13.5052V22.7477C0.00067694 23.3854 0.517544 23.9023 1.15531 23.903H15.7893C16.427 23.9023 16.9439 23.3854 16.9446 22.7477V14.6605H21.9509C22.5887 14.6598 23.1056 14.143 23.1062 13.5052V1.95206C23.1056 1.3143 22.5887 0.79743 21.9509 0.796753ZM16.1744 22.7477C16.1741 22.9603 16.0019 23.1326 15.7893 23.1328H1.15531C0.942707 23.1325 0.770403 22.9603 0.770223 22.7477V13.5052C0.770449 13.2926 0.942707 13.1203 1.15531 13.1201H15.7893C16.0019 13.1203 16.1742 13.2926 16.1744 13.5052V22.7477ZM22.336 13.5052C22.3358 13.7178 22.1635 13.8901 21.9509 13.8903H16.9446V13.5052C16.9439 12.8674 16.427 12.3505 15.7893 12.3499H6.93187V4.26269H22.336V13.5052ZM22.336 3.49247H6.93187V1.95206C6.9321 1.73946 7.10435 1.56716 7.31696 1.56698H21.9509C22.1635 1.5672 22.3358 1.73946 22.336 1.95206V3.49247Z" fill="black" fill-opacity="0.5"/>
<path d="M21.1808 2.33716H20.7957C20.583 2.33716 20.4106 2.50955 20.4106 2.72225C20.4106 2.93494 20.5831 3.10734 20.7957 3.10734H21.1808C21.3935 3.10734 21.5659 2.93494 21.5659 2.72225C21.5659 2.50955 21.3935 2.33716 21.1808 2.33716Z" fill="black" fill-opacity="0.5"/>
<path d="M19.2553 2.33716H18.8702C18.6575 2.33716 18.4851 2.50955 18.4851 2.72225C18.4851 2.93494 18.6575 3.10734 18.8702 3.10734H19.2553C19.468 3.10734 19.6404 2.93494 19.6404 2.72225C19.6404 2.50955 19.468 2.33716 19.2553 2.33716Z" fill="black" fill-opacity="0.5"/>
<path d="M8.85746 11.5796H15.7893C16.4271 11.5789 16.944 11.0621 16.9446 10.4243V6.18815C16.944 5.55038 16.4271 5.03351 15.7893 5.03284H8.85746C8.21969 5.03351 7.70283 5.55038 7.70215 6.18815V10.4243C7.70283 11.0621 8.21969 11.5789 8.85746 11.5796ZM8.47233 6.18819C8.47255 5.97559 8.64481 5.80329 8.85742 5.80311H15.7893C16.0019 5.80333 16.1742 5.97559 16.1744 6.18819V10.4244C16.1741 10.637 16.0019 10.8093 15.7893 10.8094H8.85742C8.64481 10.8092 8.47251 10.6369 8.47233 10.4244V6.18819Z" fill="black" fill-opacity="0.5"/>
<path d="M18.0999 5.80314H21.1808C21.3935 5.80314 21.5659 5.63074 21.5659 5.41805C21.5659 5.20535 21.3935 5.03296 21.1808 5.03296H18.0999C17.8872 5.03296 17.7148 5.20535 17.7148 5.41805C17.7148 5.63074 17.8872 5.80314 18.0999 5.80314Z" fill="black" fill-opacity="0.5"/>
<path d="M18.0999 7.34354H21.1808C21.3935 7.34354 21.5659 7.17115 21.5659 6.95845C21.5659 6.74576 21.3935 6.57336 21.1808 6.57336H18.0999C17.8872 6.57336 17.7148 6.74576 17.7148 6.95845C17.7148 7.17115 17.8872 7.34354 18.0999 7.34354Z" fill="black" fill-opacity="0.5"/>
<path d="M18.0999 8.88395H21.1808C21.3935 8.88395 21.5659 8.71155 21.5659 8.49886C21.5659 8.28616 21.3935 8.11377 21.1808 8.11377H18.0999C17.8872 8.11377 17.7148 8.28616 17.7148 8.49886C17.7148 8.71155 17.8872 8.88395 18.0999 8.88395Z" fill="black" fill-opacity="0.5"/>
<path d="M18.0999 10.4244H21.1808C21.3935 10.4244 21.5659 10.2519 21.5659 10.0393C21.5659 9.82661 21.3935 9.65417 21.1808 9.65417H18.0999C17.8872 9.65417 17.7148 9.82657 17.7148 10.0393C17.7148 10.252 17.8872 10.4244 18.0999 10.4244Z" fill="black" fill-opacity="0.5"/>
<path d="M18.0999 11.9648H21.1808C21.3935 11.9648 21.5659 11.7924 21.5659 11.5797C21.5659 11.367 21.3935 11.1946 21.1808 11.1946H18.0999C17.8872 11.1946 17.7148 11.367 17.7148 11.5797C17.7148 11.7924 17.8872 11.9648 18.0999 11.9648Z" fill="black" fill-opacity="0.5"/>
<path d="M1.92557 15.0456C2.0277 15.0456 2.12567 15.005 2.19793 14.9328C2.27013 14.8606 2.31071 14.7626 2.31071 14.6604V14.2753C2.31071 14.0627 2.13831 13.8903 1.92562 13.8903C1.71292 13.8903 1.54053 14.0627 1.54053 14.2753V14.6604C1.54048 14.7626 1.58105 14.8605 1.65331 14.9328C1.72542 15.005 1.8234 15.0456 1.92557 15.0456Z" fill="black" fill-opacity="0.5"/>
<path d="M1.92542 21.2073C1.82329 21.2072 1.72531 21.2478 1.65306 21.3201C1.58085 21.3923 1.54028 21.4902 1.54028 21.5924V21.9775C1.54028 22.1902 1.71268 22.3626 1.92537 22.3626C2.13807 22.3626 2.31046 22.1902 2.31046 21.9775V21.5924C2.31051 21.4902 2.26993 21.3923 2.19768 21.32C2.12552 21.2478 2.02754 21.2072 1.92542 21.2073Z" fill="black" fill-opacity="0.5"/>
<path d="M15.0192 13.8903C14.917 13.8902 14.8191 13.9308 14.7468 14.003C14.6746 14.0752 14.634 14.1732 14.634 14.2754V14.6605C14.634 14.8732 14.8065 15.0456 15.0191 15.0456C15.2318 15.0456 15.4042 14.8732 15.4042 14.6605V14.2754C15.4043 14.1733 15.3637 14.0753 15.2914 14.003C15.2193 13.9308 15.1213 13.8903 15.0192 13.8903Z" fill="black" fill-opacity="0.5"/>
<path d="M15.0192 21.2073C14.917 21.2072 14.8191 21.2478 14.7468 21.3201C14.6746 21.3923 14.634 21.4902 14.634 21.5924V21.9775C14.634 22.1902 14.8065 22.3626 15.0191 22.3626C15.2318 22.3626 15.4042 22.1902 15.4042 21.9775V21.5924C15.4043 21.4902 15.3637 21.3923 15.2914 21.32C15.2193 21.2478 15.1213 21.2072 15.0192 21.2073Z" fill="black" fill-opacity="0.5"/>
<path d="M1.15531 10.0392C1.79308 10.0385 2.30995 9.52167 2.31062 8.8839V6.95837H2.69571V7.72859C2.69571 7.88433 2.78954 8.02477 2.93345 8.08434C3.07737 8.14391 3.243 8.11097 3.35311 8.00085L5.27865 6.07532C5.3509 6.00311 5.39147 5.90518 5.39147 5.80305C5.39147 5.70093 5.3509 5.60295 5.27865 5.53079L3.35311 3.60525C3.243 3.49509 3.07733 3.46215 2.93345 3.52176C2.78954 3.58138 2.69571 3.72178 2.69576 3.87756V4.64779H2.31062C1.03509 4.64919 0.00139901 5.68287 0 6.95841V8.8839C0.000676941 9.52167 0.517544 10.0385 1.15531 10.0392ZM0.770223 6.95837C0.771125 6.10799 1.46025 5.41887 2.31062 5.41796H3.08085C3.18297 5.41801 3.28095 5.37744 3.3532 5.30519C3.42541 5.23298 3.46598 5.135 3.46598 5.03283V4.80718L4.46185 5.80305L3.46594 6.79892V6.57328C3.46598 6.47115 3.42541 6.37317 3.35316 6.30092C3.28095 6.22871 3.18297 6.18814 3.0808 6.18814H2.31062C1.88546 6.18864 1.5409 6.53316 1.5404 6.95837V8.8839C1.5404 9.09659 1.36796 9.26899 1.15531 9.26899C0.942662 9.26899 0.770223 9.09659 0.770223 8.8839V6.95837Z" fill="black" fill-opacity="0.5"/>
<path d="M21.951 16.2009C21.3132 16.2016 20.7964 16.7185 20.7957 17.3562V19.2818H20.4106V18.5116C20.4106 18.3558 20.3168 18.2154 20.1729 18.1558C20.0289 18.0962 19.8633 18.1292 19.7532 18.2393L17.8277 20.1648C17.7554 20.237 17.7148 20.335 17.7148 20.4371C17.7148 20.5392 17.7554 20.6372 17.8277 20.7094L19.7532 22.6349C19.8633 22.745 20.029 22.778 20.1729 22.7184C20.3167 22.6588 20.4106 22.5184 20.4106 22.3626V21.5924H20.7956C22.0712 21.591 23.1049 20.5573 23.1063 19.2818V17.3562C23.1056 16.7185 22.5888 16.2016 21.951 16.2009ZM22.3361 19.2818C22.3352 20.1321 21.6461 20.8213 20.7957 20.8222H20.0255C19.9233 20.8221 19.8254 20.8627 19.7531 20.935C19.6809 21.0072 19.6403 21.1051 19.6403 21.2073V21.433L18.6445 20.4371L19.6404 19.4412V19.6669C19.6403 19.769 19.6809 19.867 19.7532 19.9392C19.8254 20.0114 19.9233 20.052 20.0255 20.052H20.7957C21.2209 20.0515 21.5654 19.707 21.5659 19.2818V17.3562C21.5659 17.1435 21.7383 16.9711 21.951 16.9711C22.1637 16.9711 22.3361 17.1435 22.3361 17.3562V19.2818Z" fill="black" fill-opacity="0.5"/>
</svg>
