<svg width="23" height="23" viewBox="0 0 23 23" fill="none" xmlns="http://www.w3.org/2000/svg">
<path d="M21.4904 13.0882H21.1566V10.081C21.1566 9.60492 20.9196 9.18339 20.5577 8.92727V8.51781C20.5577 7.92387 20.0746 7.44068 19.4806 7.44068H19.2313L20.1851 6.04111C20.5048 5.572 20.3832 4.93021 19.9141 4.61047L13.4422 0.199992C13.2149 0.0450896 12.941 -0.0120784 12.6707 0.0392072C12.4005 0.0904058 12.1664 0.24374 12.0115 0.471018L6.42539 8.66814H4.87091L5.24595 4.87161C5.25017 4.82882 5.27797 4.79174 5.31675 4.77714C5.79994 4.59496 6.21868 4.25474 6.4958 3.81918C6.51763 3.78489 6.55881 3.76528 6.60142 3.7696L9.03956 4.01047C9.21438 4.02742 9.36989 3.9001 9.38715 3.72537C9.4044 3.55064 9.27677 3.39504 9.10205 3.37779L6.66391 3.13691C6.3809 3.1092 6.11101 3.23962 5.95937 3.47787C5.75562 3.79814 5.44774 4.04825 5.09248 4.18219C4.82507 4.28302 4.64146 4.5232 4.61322 4.80908L4.23204 8.6681H3.82668L4.4198 2.66353C4.44115 2.44741 4.63405 2.28863 4.85043 2.31029L9.77743 2.797C9.95216 2.81386 10.1078 2.68663 10.125 2.5119C10.1423 2.33717 10.0146 2.18157 9.83991 2.16432L4.91292 1.6776C4.34803 1.62187 3.84289 2.03604 3.78707 2.60101L3.30899 7.44068H2.49482C1.90092 7.44068 1.41769 7.92387 1.41769 8.51781V8.79712C0.931808 9.02082 0.593506 9.51198 0.593506 10.081V20.9174C0.593506 21.6965 1.22732 22.3303 2.00645 22.3303H19.7437C20.5228 22.3303 21.1566 21.6965 21.1566 20.9174V17.9103H21.4904C21.8845 17.9103 22.2051 17.5897 22.2051 17.1957V13.8029C22.2051 13.4088 21.8845 13.0882 21.4904 13.0882ZM19.4806 8.0765C19.724 8.07646 19.922 8.27446 19.922 8.51786V8.67982C19.8635 8.67241 19.8041 8.66818 19.7437 8.66818H18.3949L18.798 8.0765H19.4806ZM12.5369 0.829015C12.5961 0.742087 12.6857 0.683437 12.789 0.663829C12.8137 0.659167 12.8385 0.656814 12.8632 0.656814C12.9415 0.656814 13.018 0.680256 13.0841 0.725311L19.5561 5.13579C19.7355 5.2581 19.7821 5.50359 19.6598 5.68303L17.6255 8.66805H17.1373L18.1347 7.20456C18.2964 6.96722 18.3098 6.66517 18.1694 6.41623C17.9828 6.08551 17.9071 5.6961 17.9564 5.31967C17.993 5.03962 17.8698 4.76625 17.6348 4.60616L14.2798 2.31979C14.0448 2.15965 13.7453 2.14497 13.498 2.28148C13.1658 2.46493 12.7757 2.53695 12.3996 2.48432C12.1208 2.44519 11.8379 2.57112 11.6786 2.80489L7.68295 8.6681H7.19476L12.5369 0.829015ZM12.6769 6.22734C11.2925 6.22734 10.1561 7.30678 10.0635 8.6681H8.45224L12.2038 3.16293C12.2039 3.16293 12.2039 3.16293 12.2039 3.16293C12.2252 3.1316 12.2605 3.11295 12.2968 3.11295C12.3017 3.11295 12.3065 3.1133 12.3113 3.11395C12.8228 3.1855 13.3533 3.08763 13.8053 2.83809C13.8408 2.81839 13.8865 2.82123 13.9217 2.84519L17.2768 5.13161C17.3119 5.15557 17.3312 5.19705 17.326 5.23732C17.259 5.74926 17.3619 6.27885 17.6156 6.72861C17.636 6.76473 17.6335 6.81101 17.6094 6.84652L16.3681 8.66805H15.2904C15.1977 7.30678 14.0613 6.22734 12.6769 6.22734ZM14.6528 8.66814H10.701C10.792 7.65772 11.6432 6.86316 12.6769 6.86316C13.7106 6.86312 14.5618 7.65772 14.6528 8.66814ZM2.05347 8.51781C2.05347 8.27441 2.25142 8.07642 2.49482 8.07642H3.2462L3.18777 8.6681H2.05347V8.51781ZM1.22928 10.081C1.22928 9.6525 1.57791 9.30387 2.00645 9.30387H19.7437C20.1722 9.30387 20.5208 9.6525 20.5208 10.081V10.9631H1.22928V10.081ZM20.5208 20.9174C20.5208 21.3459 20.1722 21.6946 19.7437 21.6946H2.00645C1.57791 21.6946 1.22928 21.3459 1.22928 20.9174V20.0353H2.94354C3.11914 20.0353 3.26141 19.893 3.26141 19.7175C3.26141 19.5419 3.1191 19.3996 2.94354 19.3996H1.22928V11.5989H20.5208V13.0882H17.4983H17.4983C16.5459 13.0882 15.721 13.6433 15.3295 14.4469C15.3282 14.4496 15.3267 14.4522 15.3253 14.4549C15.322 14.4617 15.3192 14.4688 15.3159 14.4757C15.2693 14.5747 15.2288 14.6773 15.1958 14.7831C15.1957 14.7834 15.1956 14.7836 15.1955 14.7839C15.1252 15.01 15.0872 15.2503 15.0872 15.4992C15.0872 16.8287 16.1688 17.9103 17.4982 17.9103H17.4983H20.5208V19.3996H4.97902C4.80342 19.3996 4.66115 19.5419 4.66115 19.7175C4.66115 19.893 4.80346 20.0353 4.97902 20.0353H20.5208V20.9174ZM21.5693 17.1956C21.5693 17.2391 21.534 17.2745 21.4904 17.2745H17.4983C16.8254 17.2745 16.2386 16.8981 15.9376 16.3447C15.924 16.3196 15.9109 16.2941 15.8984 16.2682C15.8734 16.2165 15.8509 16.1634 15.831 16.109C15.7612 15.9188 15.7231 15.7134 15.7231 15.4992C15.7231 15.2851 15.7612 15.0797 15.831 14.8895C15.8509 14.8351 15.8735 14.782 15.8984 14.7303C15.9109 14.7044 15.924 14.6789 15.9376 14.6537C16.2386 14.1004 16.8254 13.724 17.4983 13.724H21.4904C21.5339 13.724 21.5693 13.7594 21.5693 13.8029V17.1956Z" fill="#00160A" fill-opacity="0.5"/>
<path d="M17.5727 14.2095C16.8615 14.2095 16.283 14.7881 16.283 15.4992C16.283 16.2104 16.8615 16.789 17.5727 16.789C18.2839 16.789 18.8625 16.2104 18.8625 15.4992C18.8625 14.7881 18.2839 14.2095 17.5727 14.2095ZM17.5727 16.1532C17.2121 16.1532 16.9187 15.8598 16.9187 15.4992C16.9187 15.1387 17.2121 14.8452 17.5727 14.8452C17.9333 14.8452 18.2267 15.1386 18.2267 15.4992C18.2267 15.8599 17.9333 16.1532 17.5727 16.1532Z" fill="#00160A" fill-opacity="0.5"/>
</svg>
